<?xml version="1.0" standalone="no"?>
<!DOCTYPE svg PUBLIC "-//W3C//DTD SVG 1.1//EN" "http://www.w3.org/Graphics/SVG/1.1/DTD/svg11.dtd" >
<svg xmlns="http://www.w3.org/2000/svg">
<metadata>Generated by IcoMoon</metadata>
<defs>
<font id="icomoon" horiz-adv-x="1024">
<font-face units-per-em="1024" ascent="877.7142857142858" descent="-146.28571428571428" />
<missing-glyph horiz-adv-x="1024" />
<glyph unicode="&#x20;" horiz-adv-x="256" d="" />
<glyph unicode="&#xe8e2;" glyph-name="translate" d="M678 170h138l-70 186zM790 470l192-512h-86l-48 128h-202l-48-128h-86l192 512h86zM550 254l-34-88-132 132-214-212-60 60 218 214c-54 60-96 124-128 194h86c26-50 58-98 98-142 62 68 108 146 136 228h-478v86h300v84h84v-84h300v-86h-126c-32-100-84-196-158-278l-2-2z" />
<glyph unicode="&#xe900;" glyph-name="actions" d="M452.907 690.715h257.788c11.253 0 20.421 9.169 20.421 20.421v0.415c0 11.253-9.169 20.421-20.421 20.421h-257.788c-11.253 0-20.421-9.169-20.421-20.421v-0.415c-0.079-11.253 9.089-20.421 20.421-20.421zM432.406 632.876c0-11.253 9.169-20.421 20.421-20.421h346.717c11.253 0 20.421 9.169 20.421 20.421v0.415c0 11.253-9.169 20.421-20.421 20.421h-346.717c-11.253 0-20.421-9.169-20.421-20.421v-0.415zM432.406 554.698c0-11.253 9.169-20.421 20.421-20.421h346.717c11.253 0 20.421 9.169 20.421 20.421v0.415c0 11.253-9.169 20.421-20.421 20.421h-346.717c-11.253 0-20.421-9.169-20.421-20.421v-0.415zM432.406 437.013c0-11.253 9.169-20.421 20.421-20.421h257.788c11.253 0 20.421 9.169 20.421 20.421v0.415c0 11.253-9.169 20.421-20.421 20.421h-257.705c-11.253 0-20.421-9.169-20.421-20.421l-0.083-0.415zM432.406 358.752c0-11.253 9.169-20.421 20.421-20.421h186.279c11.253 0 20.421 9.169 20.421 20.421v0.415c0 11.253-9.169 20.421-20.421 20.421h-186.196c-11.253 0-20.421-9.169-20.421-20.421l-0.083-0.415zM432.406 280.574c0-11.253 9.169-20.421 20.421-20.421h346.717c11.253 0 20.421 9.169 20.421 20.421v0.415c0 11.253-9.169 20.421-20.421 20.421h-346.717c-11.253 0-20.421-9.169-20.421-20.421v-0.415zM432.406 146.72c0-11 8.919-19.836 19.836-19.836h336.635c11 0 19.836 8.919 19.836 19.836v0.415c0 11-8.919 19.836-19.836 19.836h-336.635c-11 0-19.836-8.919-19.836-19.836v-0.415zM432.406 70.709c0-11 8.919-19.836 19.836-19.836h291.959c11 0 19.836 8.919 19.836 19.836v0.415c0 11-8.919 19.836-19.836 19.836h-291.959c-11 0-19.836-8.919-19.836-19.836v-0.415zM432.406-5.219c0-11 8.919-19.836 19.836-19.836h133.269c11 0 19.836 8.919 19.836 19.836v0.415c0 11-8.919 19.836-19.836 19.836h-133.269c-11 0-19.836-8.919-19.836-19.836v-0.415zM204.287 620.958v-104.517h165.525v104.517c0 8.666-7.586 15.754-16.921 15.754h-18.836c-3.334 0-6.419-1.499-8.334-3.999l-27.755-36.421-6.752 13.168 10.751 21.086c1.499 2.919-0.751 6.25-4.252 6.25h-21.588c-3.417 0-5.668-3.334-4.252-6.25l10.751-21.086-6.669-13.001-26.837 36.172c-1.918 2.583-5.083 4.086-8.417 4.086h-19.753c-9.075-0.007-16.661-7.008-16.661-15.758zM287.049 648.377c27.921 0 50.673 22.755 50.673 50.673s-22.752 50.676-50.673 50.676-50.673-22.668-50.673-50.673c0-27.921 22.752-50.676 50.673-50.676zM204.287 242.317h165.525v104.517c0 8.666-7.586 15.754-16.921 15.754h-18.836c-3.334 0-6.419-1.499-8.334-3.999l-27.755-36.421-6.752 13.168 10.751 21.086c1.499 2.915-0.751 6.25-4.252 6.25h-21.588c-3.417 0-5.668-3.334-4.252-6.25l10.751-21.086-6.669-13.001-26.837 36.172c-1.918 2.583-5.083 4.086-8.417 4.086h-19.753c-9.335 0-16.921-7.084-16.921-15.754l0.26-104.521zM236.377 424.929c0-27.921 22.755-50.673 50.673-50.673 27.921 0 50.673 22.752 50.673 50.673s-22.755 50.673-50.673 50.673-50.673-22.668-50.673-50.673zM369.812 58.791c0 8.666-7.586 15.754-16.921 15.754h-18.836c-3.334 0-6.419-1.499-8.334-3.999l-27.755-36.421-6.752 13.168 10.751 21.086c1.499 2.919-0.751 6.25-4.252 6.25h-21.588c-3.417 0-5.668-3.334-4.252-6.25l10.751-21.086-6.669-13.001-26.837 36.172c-1.918 2.583-5.083 4.086-8.417 4.086h-19.753c-9.335 0-16.921-7.084-16.921-15.754v-104.517h165.525l0.26 104.513zM236.377 136.886c0-27.921 22.755-50.673 50.673-50.673 27.921 0 50.673 22.755 50.673 50.673s-22.752 50.673-50.673 50.673-50.673-22.668-50.673-50.673z" />
<glyph unicode="&#xe901;" glyph-name="bell" horiz-adv-x="724" d="M632.109 232.256l-48.409 48.409c-16.177 16.177-25.299 38.192-25.299 61.18v108.859c0 93.29-63.612 175.755-151.794 196.189 0.243 1.703 0.487 3.284 0.487 4.987 0 23.839-19.339 43.179-43.179 43.179s-43.179-19.339-43.179-43.179c0-1.703 0.365-3.284 0.487-4.865-86.844-19.461-151.794-96.817-151.794-189.621v-115.427c0-22.866-9.122-44.881-25.299-61.18l-48.409-48.409c-8.149-8.149-12.649-19.096-12.649-30.529v-46.949h561.807v46.949c-0.122 11.312-4.622 22.38-12.771 30.407zM277.437 89.949c0-47.922 39.043-86.844 87.087-86.479 47.679 0.365 85.749 39.895 85.749 87.573v20.555h-172.836v-21.65z" />
<glyph unicode="&#xe902;" glyph-name="bottom" d="M548.689 136.543l340.93 340.93c12.817 12.817 20.508 30.76 20.508 46.142s-7.691 30.76-20.508 43.578c-25.634 25.634-61.521 25.634-87.155 0l-297.352-297.352-297.356 297.352c-25.634 25.634-61.521 25.634-87.155 0s-25.634-64.086 0-89.72l340.93-340.93c12.817-12.817 28.196-17.943 43.578-17.943 17.947 0 30.764 5.126 43.581 17.943z" />
<glyph unicode="&#xe903;" glyph-name="card" d="M501.188 286.48h-21.545c-11.173 0-20.241 9.067-20.241 20.241 0 4.158 1.665 8.125 4.631 11.007 12.532 12.199 23.069 28.586 30.695 46.247 1.553-1.138 3.215-1.969 5.101-1.969 12.087 0 26.313 26.729 26.313 44.947s-1.665 32.997-13.782 32.997c-1.441 0-2.941-0.249-4.49-0.639-0.86 49.408-13.337 111.048-88.781 111.048-78.716 0-87.896-61.528-88.781-110.882-1.109 0.22-2.218 0.47-3.244 0.47-12.116 0-13.782-14.779-13.782-32.997s14.197-44.947 26.313-44.947c1.496 0 2.883 0.415 4.187 1.163 7.597-17.358 17.994-33.437 30.334-45.474 2.966-2.883 4.631-6.849 4.631-11.007 0-11.173-9.067-20.241-20.241-20.241h-21.57c-46.081 0-83.431-37.35-83.431-83.431v-23.124c0-14.558 11.784-26.342 26.342-26.342h278.408c14.558 0 26.342 11.784 26.342 26.342v23.124c0.018 46.121-37.332 83.467-83.413 83.467zM750.978 515.397h-233.487c6.737-14.916 11.564-33.271 13.558-55.979 4.992-3.078 8.735-8.041 11.784-14.031h208.149c10.787 0 19.518 8.735 19.518 19.518v30.97c0 10.758-8.735 19.522-19.522 19.522zM750.978 387.822h-203.377c-5.516-20.851-19.132-42.671-37.931-48.494-0.556-1.026-1.192-1.94-1.774-2.966v-18.55h243.056c10.787 0 19.518 8.735 19.518 19.518v30.97c0.029 10.791-8.706 19.522-19.493 19.522zM750.978 260.25h-158.737c10.455-16.581 16.61-36.158 16.61-57.171v-12.839h142.13c10.787 0 19.518 8.735 19.518 19.518v30.97c0 10.791-8.735 19.522-19.522 19.522zM834.882 710.039h-645.764c-66.239 0-119.921-53.678-119.921-119.921v-476.24c0-66.239 53.678-119.921 119.921-119.921h645.764c66.239 0 119.921 53.678 119.921 119.921v476.243c0 66.239-53.682 119.917-119.921 119.917zM898.184 113.878c0-34.908-28.394-63.302-63.302-63.302h-645.764c-34.908 0-63.302 28.394-63.302 63.302v476.243c0 34.908 28.394 63.302 63.302 63.302h645.764c34.908 0 63.302-28.394 63.302-63.302 0 0 0-476.243 0-476.243z" />
<glyph unicode="&#xe904;" glyph-name="check-checked" horiz-adv-x="724" d="M562.294 327.127c-1.46 0.73-2.919 1.095-4.379 1.095-3.162 0-5.838-1.216-8.271-3.649l-22.988-22.988c-2.189-2.189-3.284-4.744-3.284-7.906v-91.344c0-15.812-5.595-29.434-16.907-40.624-11.312-11.312-24.812-16.907-40.624-16.907h-299.452c-15.812 0-29.434 5.595-40.624 16.907-11.312 11.312-16.907 24.812-16.907 40.624v299.452c0 15.812 5.595 29.434 16.907 40.624 11.312 11.312 24.812 16.907 40.624 16.907h299.452c5.23 0 10.703-0.73 16.177-2.189 1.46-0.487 2.554-0.73 3.284-0.73 3.162 0 5.838 1.216 8.271 3.649l17.636 17.636c2.919 2.919 4.014 6.325 3.284 10.46-0.73 3.892-2.919 6.568-6.446 8.271-12.893 5.96-27.002 9.001-42.084 9.001h-299.574c-28.583 0-52.909-10.095-73.221-30.407s-30.407-44.638-30.407-73.221v-299.452c0-28.583 10.095-52.909 30.407-73.221s44.638-30.407 73.221-30.407h299.452c28.583 0 52.909 10.095 73.221 30.407s30.407 44.638 30.407 73.221v114.453c0 4.987-2.433 8.514-7.176 10.339zM652.665 533.776l-39.651 39.53c-5.717 5.717-12.649 8.636-20.555 8.636s-14.717-2.919-20.555-8.636l-232.799-232.799-94.628 94.628c-5.717 5.717-12.649 8.636-20.555 8.636s-14.717-2.919-20.555-8.636l-39.53-39.53c-5.717-5.717-8.636-12.649-8.636-20.555s2.919-14.717 8.636-20.555l154.835-154.713c5.717-5.717 12.649-8.636 20.555-8.636s14.717 2.919 20.555 8.636l293.006 293.006c5.717 5.717 8.636 12.649 8.636 20.555-0.122 7.784-3.041 14.717-8.757 20.434z" />
<glyph unicode="&#xe905;" glyph-name="check-empty" horiz-adv-x="724" d="M539.063 575.008c-18.123 18.123-39.53 28.096-64.342 30.043-0.973 0.122-1.946 0.122-2.919 0.243-0.487 0-0.973 0-1.46 0.122-1.46 0.122-3.041 0.122-4.622 0.122 0 0 0 0 0 0v0h-299.331c-28.583 0-52.909-10.095-73.221-30.407s-30.407-44.638-30.407-73.221v-299.574c0-28.583 10.095-52.909 30.407-73.221 18.123-18.123 39.53-28.096 64.342-30.043 0.973-0.122 1.946-0.122 2.919-0.243 0.487 0 0.973 0 1.46-0.122 1.46-0.122 3.041-0.122 4.622-0.122 0 0 0 0 0 0v0h299.331c28.583 0 52.909 10.095 73.221 30.407s30.407 44.638 30.407 73.221v299.452c0 28.583-10.095 53.031-30.407 73.343zM108.859 409.957c0 0.122 0 0.243 0 0.365v91.465c0 15.812 5.595 29.434 16.907 40.624 11.312 11.312 24.812 16.907 40.624 16.907h299.452c0.73 0 1.46 0 2.189 0 0.365 0 0.73 0 0.973 0 0.487 0 1.095-0.122 1.581-0.122 0.973-0.122 2.068-0.122 3.041-0.365 0 0 0.122 0 0.122 0 1.338-0.122 2.676-0.365 4.014-0.608 0.122 0 0.122 0 0.243 0 0.851-0.122 1.581-0.365 2.433-0.608 9.73-2.433 18.366-7.541 25.907-15.082 11.312-11.312 16.907-24.812 16.907-40.624v-207.622c0-0.122 0-0.243 0-0.365v-91.587c0-15.812-5.595-29.434-16.907-40.624-11.312-11.312-24.812-16.907-40.624-16.907h-299.331c-0.73 0-1.46 0-2.189 0-0.365 0-0.73 0-0.973 0-0.487 0-1.095 0.122-1.581 0.122-0.973 0.122-2.068 0.122-3.041 0.365 0 0-0.122 0-0.122 0-1.338 0.122-2.676 0.365-4.014 0.608-0.122 0-0.122 0-0.243 0-0.851 0.122-1.581 0.365-2.433 0.608-9.73 2.433-18.366 7.541-25.907 15.082-11.312 11.312-16.907 24.812-16.907 40.624v207.743z" />
<glyph unicode="&#xe906;" glyph-name="contact" d="M344.409 294.348c1.9-15.331 16.141-37.191 25.981-37.191 1.203 0 2.316 0.347 3.287 0.95 7.156-13.084 16.162-24.803 26.1-33.878h74.407c9.010 9.215 16.766 21.191 22.394 34.528 1.275-0.925 2.641-1.575 4.169-1.575 9.84 0 21.538 21.885 21.653 37.191 0.116 15.678-1.228 28.647-11.556 28.647-1.228 0-2.525-0.21-3.844-0.556-0.95 45.203-12.712 105.875-81.979 105.875-64.588 0-73.897-60.556-69.566-105.716-0.972 0.184-1.944 0.415-2.825 0.415-10.328-0.043-10.144-13.012-8.222-28.69zM734.754 345.458l4.516 28.925c1.622 10.35-4.888 18.85-14.566 18.85h-209.345c5.95-14.45 10.097-31.841 11.647-52.8 4.284-2.778 7.435-7.272 9.981-12.644h178.291c9.215 0.022 17.947 7.85 19.475 17.669zM700.063 222.466c8.544 0 16.513 6.716 17.831 15.075l3.844 24.663c1.366 8.8-4.725 16.025-13.616 16.025h-168.054c-4.841-17.112-16.094-34.55-31.216-39.138-0.441-0.809-0.972-1.528-1.412-2.316l0.069-14.334 192.557 0.025zM233.646 231.429l-34.319 228.913c0 28.159 22.903 51.084 51.084 51.084h521.071c28.159 0 51.084-22.903 51.084-51.084l-30.522-226.298h45.691l30.522 226.298c0 53.447-43.328 96.775-96.775 96.775h-521.071c-53.447 0-96.775-43.328-96.775-96.775l34.319-228.913h45.691zM180.199 201.442c-9.472 0-18.456-4.122-24.663-11.278s-8.963-16.65-7.597-26.028l26.653-183.085h674.815l26.653 183.107c1.366 9.356-1.412 18.875-7.597 26.028-6.185 7.156-15.191 11.278-24.663 11.278l-663.602-0.022zM739.526 593.615l8.244 35.731c0.834 3.613-0.022 7.435-2.337 10.328-2.316 2.919-5.813 4.61-9.541 4.61h-468.18c-3.822 0-7.409-1.759-9.772-4.747-2.363-3.009-3.197-6.925-2.269-10.628l8.731-35.269 475.124-0.025zM692.607 672.306l6.716 36.241c0.672 3.566-0.3 7.225-2.615 10.003s-5.744 4.4-9.378 4.4h-371.405c-3.659 0-7.109-1.644-9.425-4.447-2.316-2.825-3.24-6.531-2.525-10.097l7.156-36.103h381.477z" />
<glyph unicode="&#xe907;" glyph-name="trash" d="M278.65 457.019c-0.607 0-0.607 0-1.21 0v-443.077c0-19.974 16.343-36.316 36.316-36.316h396.469c19.974 0 36.316 16.343 36.316 36.316 0 0-0.607 443.077-1.21 443.077 0.004 0-466.681 0-466.681 0zM406.974 102.922c0-16.95-13.316-30.266-30.266-30.266s-30.266 13.316-30.266 30.266v233.646c0 16.95 13.316 30.266 30.266 30.266s30.266-13.316 30.266-30.266v-233.646zM542.558 102.922c0-16.95-13.316-30.266-30.266-30.266s-30.266 13.316-30.266 30.266v233.646c0 16.95 13.316 30.266 30.266 30.266s30.266-13.316 30.266-30.266v-233.646zM678.146 102.922c0-16.95-13.316-30.266-30.266-30.266s-30.266 13.316-30.266 30.266v233.646c0 16.95 13.316 30.266 30.266 30.266s30.266-13.316 30.266-30.266v-233.646zM745.938 604.713h-65.372c-10.288 0-18.16 7.868-18.16 18.16v65.975c0 20.58-16.95 37.527-37.527 37.527h-225.171c-20.58 0-37.527-16.95-37.527-37.527v-65.372c0-10.288-7.868-18.16-18.16-18.16h-65.372c-20.58 0-37.527-16.95-37.527-37.527v-12.712c0-20.58 16.343-36.923 36.316-37.527 0.607 0 0.607 0 1.21 0h466.685c0.607 0 0.607 0 1.21 0 19.974 0.607 36.316 16.95 36.316 37.527v12.712c0.607 20.58-16.343 36.923-36.923 36.923zM600.062 605.316v0h-174.932v39.951c0 10.288 8.475 18.763 18.763 18.763h137.402c10.288 0 18.763-8.475 18.763-18.763 0.004 0 0.004-39.951 0.004-39.951z" />
<glyph unicode="&#xe908;" glyph-name="display" horiz-adv-x="724" d="M361.97 519.788c-129.9 0-242.408-75.654-297.749-186.093 55.341-110.44 167.849-186.093 297.749-186.093s242.408 75.654 297.749 186.093c-55.22 110.44-167.849 186.093-297.749 186.093zM508.898 421.146c35.029-22.258 64.585-52.179 86.965-87.452-22.258-35.151-51.936-65.072-86.965-87.452-43.908-28.096-94.749-42.814-146.807-42.814s-102.899 14.839-146.807 42.814c-35.029 22.258-64.585 52.179-86.965 87.452 22.258 35.151 51.936 65.072 86.965 87.452 2.311 1.46 4.622 2.919 6.933 4.257-5.838-15.933-9.001-33.083-9.001-50.963 0-82.222 66.653-148.875 148.875-148.875s148.875 66.653 148.875 148.875c0 17.88-3.162 35.029-9.001 50.963 2.311-1.46 4.622-2.797 6.933-4.257zM361.97 393.050c0-30.894-25.056-55.828-55.828-55.828s-55.828 25.056-55.828 55.828 25.056 55.828 55.828 55.828 55.828-25.056 55.828-55.828z" />
<glyph unicode="&#xe909;" glyph-name="document" horiz-adv-x="724" d="M493.816 315.329h-261.382c-10.703 0-19.217-8.514-19.217-19.217s8.514-19.217 19.217-19.217h261.382c10.703 0 19.217 8.514 19.217 19.217s-8.514 19.217-19.217 19.217zM230.002 384.171h261.382c10.703 0 19.217 8.514 19.217 19.217s-8.514 19.217-19.217 19.217h-261.382c-10.703 0-19.217-8.514-19.217-19.217 0-10.582 8.514-19.217 19.217-19.217zM493.816 208.051h-261.382c-10.703 0-19.217-8.514-19.217-19.217s8.514-19.217 19.217-19.217h261.382c10.703 0 19.217 8.514 19.217 19.217s-8.514 19.217-19.217 19.217zM632.109 516.869l-158.24 152.037c-3.527 3.406-8.392 5.473-13.379 5.473h-289.722c-46.949 0-85.141-38.192-85.141-85.141v-524.345c0-46.949 38.192-85.141 85.141-85.141h382.16c46.949 0 85.141 38.192 85.141 85.141v437.988c-0.122 5.23-2.189 10.217-5.96 13.987zM479.829 609.794l91.101-87.695h-44.638c-25.664 0-46.584 20.799-46.584 46.584v41.111h0.122zM599.513 64.772c0-25.664-20.799-46.584-46.584-46.584h-382.16c-25.664 0-46.584 20.799-46.584 46.584v524.467c0 25.664 20.799 46.584 46.584 46.584h270.383v-67.018c0-46.949 38.192-85.141 85.141-85.141h73.099v-418.893z" />
<glyph unicode="&#xe90a;" glyph-name="dropdown-old" d="M920.466-34.888v768.213c0 11.914-9.66 21.585-21.574 21.585h-768.22c-11.914 0-21.574-9.667-21.574-21.585v-768.213c0-11.914 9.66-21.585 21.574-21.585h768.22c11.914 0 21.574 9.671 21.574 21.585zM494.371 187.909l-188.529 239.661c-3.67 4.667-5.56 10.346-5.56 16.058 0 3.865 0.863 7.745 2.608 11.347 4.357 8.948 13.413 14.627 23.355 14.627h377.055c9.949 0 19.016-5.679 23.355-14.627 4.331-8.93 3.204-19.583-2.948-27.397l-188.529-239.661c-4.924-6.253-12.449-9.905-20.403-9.905s-15.469 3.645-20.403 9.898z" />
<glyph unicode="&#xe90b;" glyph-name="edit" d="M892.339 558.671c-63.927 59.213-114.849 106.377-195.025 180.643 49.881 53.855 133.98 57.074 187.836 7.192 53.855-49.885 57.074-133.984 7.189-187.836zM672.305 710.14l-469.672-507.069-36.042-232.334 228.899 53.7 469.676 507.065-192.861 178.638zM329.081 94.002l-49.838 46.164 429.527 463.73 49.838-46.164-429.527-463.73z" />
<glyph unicode="&#xe90c;" glyph-name="exit" horiz-adv-x="724" d="M414.879 235.175c-31.38-31.38-73.099-48.652-117.494-48.652s-86.114 17.271-117.494 48.652c-31.38 31.38-48.652 73.099-48.652 117.494s17.271 86.114 48.652 117.494c31.38 31.38 73.099 48.652 117.494 48.652s86.114-17.271 117.494-48.652c14.96-14.96 26.637-32.232 34.908-50.963h70.545c-28.583 96.087-117.494 166.146-222.947 166.146-128.441 0-232.556-104.115-232.556-232.556s104.115-232.556 232.556-232.556c105.331 0 194.243 70.059 222.947 166.146h-70.545c-8.271-19.096-19.947-36.367-34.908-51.206zM656.678 358.021l-69.937 69.937c-1.581 1.581-3.527 2.433-5.838 2.433-2.189 0-4.135-0.851-5.838-2.433-1.581-1.581-2.433-3.527-2.433-5.838v-36.367h-241.921v-66.41h242.165v-36.975c0-2.189 0.851-4.135 2.433-5.838 1.581-1.581 3.527-2.433 5.838-2.433 2.189 0 4.135 0.851 5.838 2.433l69.937 69.937c1.581 1.581 2.433 3.527 2.433 5.838-0.243 2.189-0.973 4.135-2.676 5.717z" />
<glyph unicode="&#xe90d;" glyph-name="expand" horiz-adv-x="724" d="M108.587 91.52c-6.827 10.24-13.653 23.893-13.653 37.547v307.2c0 27.307 23.893 51.2 51.2 51.2s51.2-23.893 51.2-51.2v-256h256c27.307 0 51.2-23.893 51.2-51.2s-23.893-51.2-51.2-51.2h-307.2c-13.653 0-27.307 6.827-37.547 13.653v0zM627.413 610.347c6.827-10.24 13.653-23.893 13.653-37.547v-307.2c0-27.307-23.893-51.2-51.2-51.2s-51.2 23.893-51.2 51.2v256h-256c-27.307 0-51.2 23.893-51.2 51.2s23.893 51.2 51.2 51.2h307.2c13.653 0 27.307-6.827 37.547-13.653v0z" />
<glyph unicode="&#xe90e;" glyph-name="hide" horiz-adv-x="724" d="M167.484 234.931l46.098 46.098c-25.907 15.69-49.503 35.394-69.451 58.747 30.407 35.273 68.721 62.518 111.291 79.546-6.568-14.596-10.217-30.651-10.217-47.679 0-17.271 3.892-33.57 10.582-48.409l37.219 37.219c-5.96 5.838-9.609 13.866-9.609 22.866 0 17.758 14.352 32.11 32.11 32.11 9.001 0 17.028-3.649 22.866-9.609l33.813 33.813 38.192 38.070 19.096 19.096c-22.015 4.379-44.638 6.69-67.504 6.69-112.021 0-218.325-54.247-284.248-145.226l-13.501-18.488 13.623-18.609c24.691-34.3 55.22-63.247 89.641-86.235zM542.225 453.622l-46.706-46.706c31.745-16.785 60.45-39.408 84.289-67.018-54.247-63.126-134.158-100.223-217.839-100.223-10.703 0-21.407 0.608-31.867 1.824l-54.49-54.49c27.975-7.176 57.044-10.947 86.479-10.947 112.021 0 218.325 54.247 284.248 145.226l13.501 18.731-13.501 18.731c-28.218 38.678-63.856 70.788-104.115 94.871zM361.97 254.879c64.464 0 116.764 52.301 116.764 116.764 0 5.838-0.608 11.433-1.338 17.028l-132.455-132.455c5.595-0.73 11.312-1.338 17.028-1.338zM323.292 261.568l292.154 292.154c14.109 14.109 14.109 36.975 0 51.084-7.055 7.055-16.298 10.582-25.542 10.582s-18.488-3.527-25.542-10.582l-453.314-453.314c-14.109-14.109-14.109-36.975 0-51.084 7.055-7.055 16.298-10.582 25.542-10.582s18.488 3.527 25.542 10.582l161.159 161.159z" />
<glyph unicode="&#xe90f;" glyph-name="historic" horiz-adv-x="724" d="M41.354 374.197l65.558-78.694c2.433-2.919 6.203-4.744 10.095-4.744s7.541 1.703 10.095 4.744l65.558 78.694c3.284 3.892 4.014 9.365 1.824 13.987s-6.811 7.541-11.92 7.541h-38.557c23.839 104.966 117.859 183.661 229.88 183.661 130.144 0 236.083-105.939 236.083-236.083s-105.939-236.083-236.083-236.083c-84.046 0-162.376 45.246-204.459 117.981-7.298 12.528-23.231 16.785-35.759 9.609-12.528-7.298-16.785-23.353-9.609-35.881 51.449-88.911 147.172-144.131 249.827-144.131 159.092 0 288.506 129.414 288.506 288.506s-129.414 288.506-288.506 288.506c-141.212 0-258.95-101.926-283.64-236.083h-38.921c-5.108 0-9.73-2.919-11.92-7.541-2.068-4.622-1.338-9.974 1.946-13.987zM347.739 539.979v-159.213c-10.825-7.541-18.001-19.704-19.217-33.57l-91.344-52.666c-12.528-7.298-16.907-23.353-9.609-35.759 4.865-8.392 13.623-13.136 22.745-13.136 4.5 0 9.001 1.095 13.136 3.527l91.222 52.666c5.838-2.797 12.406-4.379 19.339-4.379 25.299 0 45.854 20.555 45.854 45.854 0 15.569-7.784 29.313-19.704 37.584v159.092c0 14.474-11.798 26.272-26.272 26.272s-26.15-11.798-26.15-26.272z" />
<glyph unicode="&#xe910;" glyph-name="inpage" horiz-adv-x="724" d="M66.045 596.172v-488.221h503.425v488.221h-503.425zM530.549 417.133h-428.258v122.116h428.258v-122.116z" />
<glyph unicode="&#xe911;" glyph-name="key" d="M807.875 183.397l-263.16 222.87c10.899 23.398 17.163 49.39 17.163 76.896 0 100.836-81.762 182.587-182.59 182.587s-182.594-81.751-182.594-182.587c0-100.836 81.762-182.587 182.594-182.587 33.264 0 64.371 9.042 91.241 24.598l76.17-64.512-22.459-26.523c-19.601-23.149-16.719-57.8 6.423-77.405 10.31-8.742 22.929-13.012 35.464-13.012 15.581 0 31.068 6.596 41.941 19.421l22.459 26.523 22.538-19.096-35.493-41.912c-19.601-23.142-16.719-57.796 6.423-77.398 10.325-8.742 22.929-13.012 35.464-13.012 15.581 0 31.082 6.604 41.941 19.428l35.493 41.909c10.321-8.742 22.929-13.012 35.464-13.012 15.581 0 31.078 6.596 41.941 19.428 19.605 23.145 16.722 57.796-6.423 77.398zM335.721 466.365c-31.429 0-56.919 25.483-56.919 56.919 0 31.443 25.49 56.926 56.919 56.926 31.443 0 56.929-25.483 56.929-56.926 0.004-31.436-25.486-56.919-56.929-56.919z" />
<glyph unicode="&#xe912;" glyph-name="left" d="M289.784 309.571l340.93-340.93c12.817-12.817 30.76-20.508 46.142-20.508s30.76 7.691 43.578 20.508c25.634 25.634 25.634 61.521 0 87.155l-297.352 297.352 297.352 297.352c25.634 25.634 25.634 61.521 0 87.155s-64.086 25.634-89.72 0l-340.93-340.93c-12.817-12.817-17.943-28.196-17.943-43.578 0-17.943 5.126-30.76 17.943-43.578z" />
<glyph unicode="&#xe913;" glyph-name="link" d="M407.165 112.581l-40.865-40.583c-35.424-35.11-93.040-35.142-128.443 0-17.022 16.888-26.368 39.322-26.368 63.165 0 23.846 9.36 46.287 26.36 63.175l150.421 149.24c31.176 30.912 89.818 76.433 132.561 34.041 19.616-19.482 51.294-19.352 70.769 0.253 19.482 19.605 19.363 51.294-0.253 70.758-72.655 72.102-180.040 58.775-273.564-34.023l-150.432-149.251c-36.093-35.829-55.958-83.478-55.958-134.197s19.869-98.358 55.969-134.186c37.14-36.848 85.913-55.26 134.703-55.26 48.801 0 97.592 18.413 134.754 55.282l40.897 40.594c19.605 19.464 19.717 51.142 0.231 70.758-19.461 19.598-51.167 19.71-70.783 0.235zM863.027 692.327c-78.037 77.43-187.146 81.632-259.389 9.952l-50.94-50.568c-19.616-19.475-19.735-51.142-0.253-70.758s51.164-19.728 70.78-0.253l50.922 50.539c37.422 37.162 86.426 21.754 118.389-9.952 17.040-16.888 26.4-39.333 26.4-63.175 0-23.857-9.367-46.298-26.378-63.186l-160.485-159.203c-73.384-72.806-107.808-38.636-122.496-24.056-19.616 19.475-51.283 19.352-70.769-0.253-19.482-19.605-19.363-51.294 0.253-70.758 33.687-33.437 72.142-50.011 112.45-50.011 49.358 0 101.49 24.854 151.057 74.071l160.485 159.203c36.082 35.829 55.969 83.489 55.969 134.208-0.004 50.691-19.89 98.35-55.994 134.201z" />
<glyph unicode="&#xe914;" glyph-name="localisation" d="M791.781 566.081c-3.031 11.376-9.197 23.492-13.753 34.102-54.552 131.105-173.751 178.089-269.995 178.089-128.84 0-270.743-86.393-289.69-264.471v-36.385c0-1.517 0.52-15.158 1.268-21.978 10.621-84.869 77.582-175.058 127.601-259.927 53.805-90.93 109.639-180.372 164.961-269.785 34.102 58.342 68.092 117.453 101.417 174.3 9.093 16.672 19.638 33.343 28.73 49.26 6.062 10.599 17.64 21.209 22.932 31.071 53.797 98.509 140.407 197.785 140.407 295.542v40.167c-0.004 10.599-13.131 47.732-13.879 50.015zM510.389 383.447c-37.873 0-79.327 18.937-99.788 71.235-3.049 8.327-2.803 25.009-2.803 26.534v23.492c0 66.669 56.612 96.992 105.861 96.992 60.625 0 107.526-48.509 107.526-109.137-0.011-60.625-50.167-109.116-110.795-109.116z" />
<glyph unicode="&#xe915;" glyph-name="lock" horiz-adv-x="724" d="M646.097 370.67c-9.73 9.73-21.407 14.474-35.273 14.474h-16.542v99.493c0 63.612-22.745 118.224-68.477 163.835-45.611 45.611-100.223 68.477-163.835 68.477s-118.224-22.866-163.835-68.477c-45.611-45.611-68.477-100.223-68.477-163.835v-99.493h-16.42c-13.866 0-25.542-4.865-35.273-14.474-9.73-9.73-14.474-21.407-14.474-35.273v-298.601c0-13.866 4.865-25.542 14.474-35.273 9.73-9.609 21.407-14.474 35.273-14.474h497.709c13.866 0 25.542 4.865 35.273 14.474 9.609 9.73 14.474 21.407 14.474 35.273v298.601c-0.122 13.866-4.865 25.542-14.596 35.273zM494.668 385.144h-265.396v99.493c0 36.611 13.014 67.869 38.921 93.776s57.166 38.921 93.776 38.921c36.611 0 67.869-13.014 93.776-38.921s38.921-57.166 38.921-93.776v-99.493z" />
<glyph unicode="&#xe916;" glyph-name="minus" d="M453.785 39.284c-86.924 0-168.213 34.257-228.906 96.432-59.686 61.113-91.989 141.809-90.984 227.241 1.008 85.447 35.236 165.337 96.389 225.023 60.065 58.692 139.453 91.024 223.448 91.024 86.866 0 168.158-34.243 228.877-96.436 59.686-61.109 91.989-141.805 90.984-227.252-1.037-85.447-35.236-165.351-96.36-225.023-60.119-58.678-139.453-91.010-223.448-91.010zM453.73 600.663c-63.425 0-123.342-24.406-168.733-68.731-46.168-45.059-72.001-105.406-72.774-169.9-0.748-64.501 23.644-125.441 68.688-171.579 45.85-46.97 107.234-72.828 172.873-72.828 63.399 0 123.342 24.406 168.704 68.717 46.168 45.059 71.997 105.391 72.745 169.914 0.806 64.501-23.586 125.455-68.663 171.605-45.846 46.959-107.259 72.803-172.84 72.803zM306.485 409.883h287.096v-91.125h-287.096v91.125z" />
<glyph unicode="&#xe917;" glyph-name="mobile" d="M660.929 703.847h-297.132c-28.401 0-51.348-23.051-51.348-51.428v-603.302c0-28.347 22.947-51.402 51.348-51.402h297.107c28.401 0 51.402 23.051 51.402 51.402v603.302c0.022 28.373-22.979 51.428-51.377 51.428zM439.038 672.599h146.697c3.714 0 6.69-5.534 6.69-12.409 0-6.849-2.977-12.409-6.69-12.409h-146.697c-3.714 0-6.665 5.56-6.665 12.409 0 6.878 2.951 12.409 6.665 12.409zM512.387 48.485c-18.099 0-32.827 14.703-32.827 32.827s14.753 32.776 32.827 32.776 32.802-14.674 32.802-32.776c0-18.128-14.753-32.827-32.802-32.827zM673.811 160.931h-322.846v456.129h322.846v-456.129z" />
<glyph unicode="&#xe918;" glyph-name="more2" d="M828.603 728.658h-628.25c-55.759 0-91.696-30.471-91.696-92.957v-604.455c0-54.794 27.289-83.254 94.579-83.254h625.368c47.707 0 86.74 39.033 86.74 86.74v607.186c0 47.707-39.033 86.74-86.74 86.74zM302.572 273.269c-34.694 0-65.054 30.359-65.054 65.054s30.359 65.054 65.054 65.054 65.054-30.359 65.054-65.054-30.356-65.054-65.054-65.054zM519.424 273.269c-34.694 0-65.054 30.359-65.054 65.054s30.359 65.054 65.054 65.054 65.054-30.359 65.054-65.054-30.356-65.054-65.054-65.054zM736.275 273.269c-34.694 0-65.054 30.359-65.054 65.054s30.359 65.054 65.054 65.054 65.054-30.359 65.054-65.054-30.356-65.054-65.054-65.054z" />
<glyph unicode="&#xe919;" glyph-name="notifications" d="M449.381 689.574c-47.606-12.384-89.424-1.875-112.183 7.416v14.020h-76.733v-742.619h76.733v358.675c84.619-10.133 156.53 7.669 235.008 38.401 92.715 36.309 187.666 4.711 196.806-2.149l0.087 359.567c-114.802 37.523-249.87-15.147-319.717-33.311z" />
<glyph unicode="&#xe91a;" glyph-name="hierarchy" horiz-adv-x="724" d="M399.918 123.032c-0.122 0-9.122 2.797-9.122 2.797-3.284 0.973-6.811 0.73-9.974-0.73l-18.366-8.757-18.366 8.757c-3.162 1.46-6.69 1.703-9.974 0.73 0 0-9.001-2.797-9.122-2.797-15.812-5.23-26.394-19.947-26.394-36.489v-40.624c0-7.663 6.203-13.866 13.866-13.866h100.101c7.663 0 13.866 6.203 13.866 13.866v40.624c-0.122 16.542-10.703 31.259-26.515 36.489v0zM319.035 177.644c0-23.961 19.461-43.422 43.422-43.422s43.422 19.461 43.422 43.422c0 23.961-19.461 43.422-43.422 43.422s-43.422-19.582-43.422-43.422v0zM312.467 422.849h100.101c7.663 0 13.866 6.203 13.866 13.866v40.503c0 16.663-10.582 31.259-26.394 36.489-0.122 0-9.122 2.797-9.122 2.797-3.284 0.973-6.811 0.73-9.974-0.73l-18.366-8.757-18.366 8.757c-3.162 1.46-6.69 1.703-9.974 0.73 0 0-9.001-2.797-9.122-2.797-15.812-5.23-26.394-19.947-26.394-36.489v-40.624c-0.122-7.541 6.081-13.744 13.744-13.744zM362.456 526.721c23.961 0 43.422 19.461 43.422 43.422s-19.461 43.3-43.422 43.3-43.422-19.461-43.422-43.422 19.461-43.3 43.422-43.3zM189.499 123.032c-0.122 0-9.122 2.797-9.122 2.797-3.284 0.973-6.811 0.73-9.974-0.73l-18.366-8.757-18.366 8.757c-3.162 1.46-6.69 1.703-9.974 0.73 0 0-9.001-2.797-9.122-2.797-15.812-5.23-26.394-19.947-26.394-36.489v-40.624c0-7.663 6.203-13.866 13.866-13.866h100.101c7.663 0 13.866 6.203 13.866 13.866v40.624c-0.122 16.542-10.703 31.259-26.515 36.489v0zM152.037 134.222c23.961 0 43.422 19.461 43.422 43.422s-19.461 43.422-43.422 43.422-43.422-19.461-43.422-43.422c0-23.961 19.461-43.422 43.422-43.422zM610.459 123.032c-0.122 0-9.122 2.797-9.122 2.797-3.284 0.973-6.811 0.73-9.974-0.73l-18.366-8.757-18.366 8.757c-3.162 1.46-6.69 1.703-9.974 0.73 0 0-9.001-2.797-9.122-2.797-15.812-5.23-26.394-19.947-26.394-36.489v-40.624c0-7.663 6.203-13.866 13.866-13.866h100.101c7.663 0 13.866 6.203 13.866 13.866v40.624c-0.243 16.542-10.825 31.259-26.515 36.489v0zM529.454 177.644c0-23.961 19.461-43.422 43.422-43.422s43.422 19.461 43.422 43.422c0 23.961-19.461 43.422-43.422 43.422-23.961-0.122-43.422-19.582-43.422-43.422v0zM152.037 257.068c9.244 0 16.785 7.541 16.785 16.785v33.57h176.85v-33.57c0-9.244 7.541-16.785 16.785-16.785s16.785 7.541 16.785 16.785v33.57h176.85v-33.57c0-9.244 7.541-16.785 16.785-16.785s16.785 7.541 16.785 16.785v50.355c0 9.244-7.541 16.785-16.785 16.785h-193.634v46.341c0 9.244-7.541 16.785-16.785 16.785s-16.785-7.541-16.785-16.785v-46.341h-193.634c-9.244 0-16.785-7.541-16.785-16.785v-50.355c0-9.244 7.541-16.785 16.785-16.785v0z" />
<glyph unicode="&#xe91b;" glyph-name="outpage" horiz-adv-x="724" d="M69.694 564.791h101.196v-428.258h-101.196v428.258zM170.89 603.713v-38.921h57.409v-428.258h-57.409v-36.246h391.039v503.425z" />
<glyph unicode="&#xe91c;" glyph-name="ico-en-ligne-01" d="M510.524 842.302v-132.795c188.865 0 342.317-153.452 342.317-342.317s-150.501-345.268-342.317-345.268c-185.914 0-339.366 153.452-342.317 339.366 0 0 0 0 0 0 0 38.363-29.51 67.873-67.873 67.873s-67.873-29.51-67.873-67.873c0 0 0 0 0 0v0c2.951-262.64 215.424-472.161 478.063-472.161s478.063 212.473 478.063 478.063-212.473 475.112-478.063 475.112zM401.337 505.887v-321.66l289.199 147.55z" />
<glyph unicode="&#xe91f;" glyph-name="pdf" d="M349.622 342.427c0 21.299-14.786 34.008-40.886 34.008-10.646 0-17.857-1.022-21.643-2.056v-68.381c4.472-1.022 9.971-1.373 17.51-1.373 27.845 0 45.019 14.089 45.019 37.801zM511.151 375.756c-11.694 0-19.237-1.030-23.72-2.063v-151.53c4.472-1.040 11.694-1.040 18.221-1.040 47.407-0.332 78.337 25.768 78.337 81.090 0.347 48.126-27.834 73.543-72.839 73.543zM820.67 464.779h-18.991v91.635c0 0.574-0.094 1.149-0.163 1.73-0.033 3.638-1.196 7.211-3.685 10.043l-152.491 174.195c-0.047 0.047-0.094 0.061-0.123 0.108-0.907 1.015-1.969 1.86-3.085 2.59-0.332 0.224-0.668 0.412-1.015 0.603-0.968 0.527-2.001 0.968-3.063 1.286-0.285 0.076-0.542 0.195-0.831 0.271-1.149 0.271-2.348 0.441-3.558 0.441h-374.765c-17.112 0-31.017-13.919-31.017-31.017v-251.882h-18.991c-24.478 0-44.329-19.843-44.329-44.329v-230.528c0-24.471 19.851-44.329 44.329-44.329h18.991v-157.809c0-17.098 13.905-31.017 31.017-31.017h511.765c17.098 0 31.017 13.919 31.017 31.017v157.801h18.991c24.478 0 44.329 19.858 44.329 44.329v230.528c-0.004 24.489-19.854 44.333-44.333 44.333zM258.901 716.66h359.26v-158.686c0-8.569 6.947-15.508 15.508-15.508h136.997v-77.694h-511.765c0 0 0 251.889 0 251.889zM639.644 303.954c0-44.336-16.144-74.912-38.506-93.817-24.37-20.27-61.488-29.883-106.825-29.883-27.141 0-46.377 1.712-59.451 3.428v227.472c19.237 3.085 44.336 4.808 70.794 4.808 43.957 0 72.485-7.908 94.825-24.735 24.045-17.878 39.163-46.388 39.163-87.274zM235.203 182.649v228.502c16.144 2.738 38.831 4.808 70.787 4.808 32.296 0 55.325-6.188 70.78-18.565 14.779-11.679 24.72-30.923 24.72-53.602s-7.536-41.927-21.292-54.975c-17.864-16.834-44.322-24.402-75.252-24.402-6.864 0-13.066 0.35-17.857 1.030v-82.806l-51.886 0.011zM770.662-3.813h-511.762v149.406h511.765v-149.406zM815.606 371.287h-89.008v-52.912h83.153v-42.609h-83.153v-93.119h-52.547v231.59h141.556v-42.949z" />
<glyph unicode="&#xe920;" glyph-name="people" horiz-adv-x="724" d="M419.622 507.747c27.367-17.15 46.463-46.098 49.99-79.789 11.19-5.23 23.475-8.149 36.611-8.149 47.8 0 86.6 38.8 86.6 86.6s-38.8 86.6-86.6 86.6c-47.436 0.122-85.871-38.070-86.6-85.262zM362.943 330.411c47.8 0 86.6 38.8 86.6 86.6s-38.8 86.6-86.6 86.6-86.6-38.8-86.6-86.6 38.8-86.6 86.6-86.6zM399.675 324.451h-73.464c-61.18 0-110.926-49.747-110.926-110.926v-89.884l0.243-1.46 6.203-1.946c58.382-18.244 109.102-24.326 150.821-24.326 81.492 0 128.806 23.231 131.725 24.691l5.838 2.919h0.608v89.884c-0.122 61.301-49.868 111.048-111.048 111.048zM542.955 413.97h-72.978c-0.73-29.191-13.258-55.463-32.962-74.316 54.368-16.177 94.141-66.531 94.141-126.13v-27.732c72.005 2.676 113.48 23.11 116.278 24.448l5.838 2.919h0.608v89.884c0 61.18-49.747 110.926-110.926 110.926zM210.906 419.809c16.907 0 32.718 4.987 46.098 13.379 4.257 27.732 19.096 51.936 40.259 68.356 0.122 1.581 0.243 3.284 0.243 4.865 0 47.8-38.8 86.6-86.6 86.6s-86.6-38.8-86.6-86.6c0-47.8 38.8-86.6 86.6-86.6zM288.749 339.533c-19.582 18.853-31.989 44.881-32.962 73.951-2.676 0.243-5.352 0.365-8.149 0.365h-73.464c-61.18 0.122-110.926-49.625-110.926-110.805v-89.884l0.243-1.338 6.203-1.946c46.827-14.596 88.546-21.407 124.914-23.475v27.123c0 59.477 39.773 109.832 94.141 126.008z" />
<glyph unicode="&#xe921;" glyph-name="phone" d="M456.414 564.99c3.074-31.555-12.683-30.93-42.906-38.466-9.002-2.243-18.467-2.677-27.415-5.079-20.143-5.404-23.149-13.547-10.469-30.609 49.957-67.229 100.063-134.349 150.558-201.173 26.754-35.406 54.011-70.458 82.022-104.871 5.661-6.958 17.044-15.548 23.416-13.944 7.001 1.759 13.836 13.72 16.242 22.473 8.439 30.695 11.217 35.381 42.27 30.804 57.497-8.475 114.487-20.313 171.923-29.261 16.018-2.496 18.503-10.986 17.748-23.655-4.039-67.557-34.080-120.22-91.747-155.89-16.672-10.314-34.875-18.966-53.436-25.237-32.346-10.931-63.378-1.001-91.176 14.706-40.034 22.618-80.335 45.727-116.807 73.5-80.58 61.362-149.42 133.757-202.329 221.443-39.246 65.032-70.986 132.85-90.977 205.721-11.571 42.172-27.935 84.301-13.431 130.223 13.15 41.634 43.104 69.136 77.329 89.922 29.287 17.788 63.515 28.405 96.678 38.542 27.52 8.414 40.717-1.748 44.445-30.421 5.747-44.181 10.032-88.557 14.822-132.861 1.293-11.932 2.171-23.911 3.24-35.869z" />
<glyph unicode="&#xe922;" glyph-name="photo2" d="M512 433.025c-67.128 0-121.535-54.433-121.535-121.535 0-67.128 54.408-121.535 121.535-121.535 67.113 0 121.535 54.408 121.535 121.535 0 67.102-54.422 121.535-121.535 121.535zM836.096 554.56h-97.231c-13.37 0-27.777 10.371-31.996 23.059l-25.132 75.425c-4.237 12.68-18.626 23.051-31.996 23.051h-275.482c-13.37 0-27.777-10.371-31.996-23.059l-25.132-75.425c-4.237-12.68-18.626-23.051-31.996-23.051h-97.231c-44.564 0-81.025-36.461-81.025-81.025v-364.61c0-44.564 36.461-81.025 81.025-81.025h648.195c44.564 0 81.025 36.461 81.025 81.025v364.61c-0.004 44.564-36.465 81.025-81.028 81.025zM512 108.926c-111.872 0-202.56 90.692-202.56 202.56 0 111.861 90.692 202.56 202.56 202.56 111.854 0 202.56-90.699 202.56-202.56 0-111.868-90.706-202.56-202.56-202.56zM807.738 416.877c-15.653 0-28.358 12.687-28.358 28.358 0 15.653 12.705 28.358 28.358 28.358 15.671 0 28.358-12.705 28.358-28.358 0-15.671-12.694-28.358-28.358-28.358z" />
<glyph unicode="&#xe923;" glyph-name="play" d="M876.544 392.96l-688.128 397.312c-28.672 16.384-61.44-4.096-61.44-36.864v-798.72c0-32.768 36.864-53.248 65.536-36.864l692.224 397.312c20.48 20.48 20.48 57.344-8.192 77.824v0z" />
<glyph unicode="&#xe924;" glyph-name="plus" d="M453.167 37.293c-87.715 0-169.802 34.582-231.038 97.342-60.278 61.691-92.885 143.149-91.87 229.383 1.015 86.252 35.598 166.898 97.299 227.143 60.629 59.249 140.765 91.884 225.521 91.884 87.744 0 169.77-34.568 231.063-97.346 60.249-61.687 92.859-143.145 91.841-229.394-1.044-86.252-35.598-166.912-97.27-227.143-60.654-59.234-140.765-91.87-225.547-91.87zM453.080 603.968c-64.024 0-124.48-24.637-170.297-69.382-46.601-45.485-72.676-106.403-73.46-171.5-0.784-65.112 23.839-126.622 69.335-173.198 46.283-47.414 108.249-73.518 174.506-73.518 63.992 0 124.505 24.637 170.293 69.367 46.601 45.485 72.68 106.385 73.46 171.514 0.784 65.112-23.868 126.636-69.335 173.223-46.28 47.403-108.241 73.493-174.502 73.493zM402.411 173.109v143.015h-133.796v91.985h133.796v140.718h95.905v-140.718h133.854v-91.985h-133.854v-143.015z" />
<glyph unicode="&#xe925;" glyph-name="potentiel" horiz-adv-x="724" d="M654.003 370.549l-60.572 45.976 29.434 70.18c2.433 5.717 1.946 12.285-1.095 17.758-3.162 5.473-8.636 9.001-14.839 9.852l-75.41 9.609-9.609 75.41c-0.73 6.203-4.379 11.676-9.852 14.839s-12.041 3.527-17.758 1.095l-70.18-29.434-45.976 60.572c-3.771 4.987-9.73 7.906-15.933 7.906s-12.163-2.919-15.933-7.906l-45.976-60.572-70.18 29.434c-5.717 2.433-12.285 1.946-17.758-1.095-5.473-3.162-9.001-8.636-9.852-14.839l-9.609-75.41-75.41-9.609c-6.203-0.73-11.676-4.379-14.839-9.852s-3.527-12.041-1.095-17.758l29.434-70.18-60.572-45.976c-4.987-3.771-7.906-9.73-7.906-15.933s2.919-12.163 7.906-15.933l60.572-45.976-29.434-70.18c-2.433-5.717-1.946-12.285 1.095-17.758 3.162-5.473 8.636-9.001 14.839-9.852l75.41-9.609 9.609-75.41c0.73-6.203 4.379-11.676 9.852-14.839s12.041-3.527 17.758-1.095l70.18 29.434 45.976-60.572c3.771-4.987 9.73-7.906 15.933-7.906s12.163 2.919 15.933 7.906l45.976 60.572 70.18-29.434c5.717-2.433 12.285-1.946 17.758 1.095 5.473 3.162 9.001 8.636 9.852 14.839l9.609 75.41 75.41 9.609c6.203 0.73 11.676 4.379 14.839 9.852s3.527 12.041 1.095 17.758l-29.434 70.18 60.572 45.976c4.987 3.771 7.906 9.73 7.906 15.933 0 6.325-2.919 12.163-7.906 15.933z" />
<glyph unicode="&#xe926;" glyph-name="printView" d="M648.628 6.085h-380.404c-45.832 0-83.098-37.274-83.098-83.055s37.267-83.030 83.098-83.030h380.4c45.882 0 83.185 37.249 83.185 83.030 0.004 45.781-37.303 83.055-83.181 83.055zM815.476 292.997h-42.292v501.159h-621.816v-501.159h-46.403c-57.814 0-104.965-46.959-104.965-104.719v-171.868c0-57.742 47.15-104.77 104.965-104.77h57.558c-0.394 3.8-1.138 7.507-1.138 11.39 0 58.877 47.978 106.753 106.93 106.753h380.4c58.952 0 106.93-47.876 106.93-106.753 0-3.883-0.744-7.593-1.138-11.39h60.965c57.861 0 104.875 47.028 104.875 104.77v171.868c0.004 57.76-47.009 104.719-104.871 104.719zM228.599 717.105h467.349v-498.912h-467.349v498.912zM533.433 115.677h-140.739c-11.809 0-21.386 9.533-21.386 21.317s9.573 21.343 21.386 21.343h140.739c11.809 0 21.386-9.559 21.386-21.343 0-11.788-9.577-21.317-21.386-21.317zM460.175 597.278c-84.493 0-157.924-49.141-194.006-121.022 36.082-71.813 109.509-121.001 194.006-121.001 84.63 0 158.058 49.188 194.049 121.001-35.991 71.882-109.419 121.022-194.049 121.022zM555.87 533.145c22.827-14.555 42.115-34.023 56.68-56.893-14.562-22.892-33.853-42.313-56.68-56.843-28.734-18.243-61.752-27.87-95.695-27.87-33.849 0-67.001 9.627-95.645 27.87-22.871 14.529-42.115 33.95-56.503 56.843 14.389 22.892 33.806 42.357 56.503 56.893 1.488 0.918 2.973 1.788 4.461 2.702-3.717-10.296-5.773-21.429-5.773-33.080 0-53.508 43.343-96.801 96.96-96.801 53.577 0 97.046 43.292 97.046 96.801 0 11.65-2.095 22.784-5.773 33.101 1.485-0.936 2.973-1.806 4.418-2.724zM460.175 514.837c0-20.010-16.267-36.313-36.342-36.313-20.071 0-36.342 16.303-36.342 36.313 0 20.053 16.271 36.266 36.342 36.266 20.075 0 36.342-16.213 36.342-36.266z" />
<glyph unicode="&#xe927;" glyph-name="profile" d="M617.323 210.534c-20.949 3.324-21.512 60.668-21.512 60.668s61.821 60.668 75.346 142.217c36.215 0 58.551 86.754 22.336 117.211 1.528 32.126 46.623 252.218-181.554 252.218s-183.085-220.023-181.557-252.218c-36.208-30.526-13.876-117.211 22.343-117.211 13.525-81.549 75.339-142.217 75.339-142.217s-0.553-57.345-21.505-60.668c-67.85-10.65-320.862-121.337-320.862-242.677h852.493c-0.004 121.34-253.016 232.027-320.866 242.677z" />
<glyph unicode="&#xe928;" glyph-name="pin" d="M540.25 803.379l-84.688-84.623 84.688-84.688-197.496-225.684h-197.506l155.124-155.19-239.805-318.012v-34.676h34.734l317.947 239.812 155.19-155.182v197.496l225.684 197.496 84.623-84.623 84.688 84.623-423.183 423.252zM455.562 323.754l-56.438 56.377 197.496 197.557 56.438-56.438-197.496-197.496z" />
<glyph unicode="&#xe929;" glyph-name="quote-close" horiz-adv-x="724" d="M406.486 558.466v-206.406l206.527-206.527v412.933zM62.396 558.466v-206.406l206.527-206.527v412.933z" />
<glyph unicode="&#xe92a;" glyph-name="quote-open" horiz-adv-x="724" d="M62.396 558.466v-412.933l206.527 206.527v206.406zM406.486 558.466v-412.933l206.527 206.527v206.406z" />
<glyph unicode="&#xe92b;" glyph-name="reduce" horiz-adv-x="724" d="M327.312 307.020c7.097-7.097 9.471-14.207 9.471-26.038v-213.053c0-18.943-16.566-35.509-35.509-35.509s-35.509 16.566-35.509 35.509v177.545h-177.545c-18.943 0-35.509 16.566-35.509 35.509s16.566 35.509 35.509 35.509h213.053c9.471 0 18.943-4.736 26.038-9.471v0zM393.595 373.302c-4.736 7.097-9.471 16.566-9.471 26.038v213.053c0 18.943 16.566 35.509 35.509 35.509s35.509-16.566 35.509-35.509v-177.545h177.545c18.943 0 35.509-16.566 35.509-35.509s-16.566-35.509-35.509-35.509h-213.053c-9.471 0-18.943 4.736-26.038 9.471v0z" />
<glyph unicode="&#xe92c;" glyph-name="right" d="M721.717 395.444l-340.93 340.93c-12.817 12.817-30.76 20.508-46.142 20.508s-30.76-7.691-43.578-20.508c-25.634-25.634-25.634-61.521 0-87.155l297.352-297.352-297.352-297.352c-25.634-25.634-25.634-61.521 0-87.155s64.086-25.634 89.72 0l340.93 340.93c12.817 12.817 17.943 28.196 17.943 43.578 0 17.943-5.126 30.76-17.943 43.578z" />
<glyph unicode="&#xe92d;" glyph-name="search" d="M935.111 35.299l-213.665 181.806c-22.083 19.905-45.76 28.994-64.816 28.138 50.496 59.090 80.898 135.747 80.898 219.532 0 186.875-151.382 338.336-338.336 338.336-186.904 0-338.336-151.461-338.336-338.336s151.436-338.336 338.336-338.336c83.814 0 160.413 30.45 219.553 80.924-0.881-19.052 8.262-42.711 28.145-64.79l181.72-213.716c31.172-34.582 81.997-37.498 112.999-6.495 30.999 31.021 28.084 81.881-6.499 112.938zM399.189 239.218c-124.566 0-225.557 100.995-225.557 225.557s100.995 225.557 225.557 225.557 225.557-100.995 225.557-225.557-100.991-225.557-225.557-225.557z" />
<glyph unicode="&#xe92e;" glyph-name="settings" d="M789.989 438.068l-19.356 45.991c0 0 45.033 101.605 41.056 105.514l-59.628 58.208c-4.118 4.013-105.763-42.367-105.763-42.367l-46.879 18.93c0 0-41.41 102.992-47.093 102.992h-84.135c-5.859 0-44.181-103.206-44.181-103.206l-46.807-19.002c0 0-103.773 44.109-107.75 40.167l-59.52-58.281c-4.118-4.013 43.256-103.56 43.256-103.56l-19.356-45.919c0 0-105.192-40.521-105.192-45.991v-82.463c0-5.755 105.442-43.292 105.442-43.292l19.356-45.85c0 0-45.033-101.537-41.089-105.442l59.592-58.349c4.050-3.941 105.727 42.44 105.727 42.44l46.916-19.002c0 0 41.41-102.92 47.129-102.92h84.135c5.823 0 44.181 103.206 44.181 103.206l46.952 19.002c0 0 103.56-44.109 107.573-40.236l59.592 58.281c4.154 4.086-43.328 103.56-43.328 103.56l19.32 45.919c0 0 105.229 40.594 105.229 46.132v82.394c0.029 5.711-105.377 43.144-105.377 43.144zM634.933 352.018c0-66.304-55.152-120.286-122.915-120.286-67.691 0-122.915 53.982-122.915 120.286s55.224 120.217 122.915 120.217c67.796-0.036 122.915-53.913 122.915-120.217z" />
<glyph unicode="&#xe92f;" glyph-name="chart-pie" d="M487.164 191.081c-84.811 0-153.838 68.974-153.838 153.784 0 80.505 62.153 146.585 140.927 153.163v228.498c-204.652-6.846-369.075-175.333-369.075-381.686 0-210.605 171.352-381.932 381.986-381.932 99.293 0 189.786 38.116 257.734 100.511l-158.332 164.423c-26.772-22.845-61.449-36.761-99.402-36.761zM689.811 318.555c-3.844-41.067-23.929-77.311-53.599-102.649l158.307-164.452c73.088 67.081 120.137 162.068 123.844 267.965l-228.552-0.863zM664.068 359.135c0-4.873-0.296-9.663-0.704-14.428l228.527 0.867c0.188 4.519 0.35 9.013 0.35 13.561-0.025 210.631-171.352 381.957-381.986 381.957-4.331 0-8.58-0.188-12.886-0.35v-228.444c4.223 0.325 8.526 0.621 12.886 0.621 84.836 0 153.813-69.002 153.813-153.784z" />
<glyph unicode="&#xe930;" glyph-name="books" horiz-adv-x="1152" d="M224 768h-192c-17.6 0-32-14.4-32-32v-704c0-17.6 14.4-32 32-32h192c17.6 0 32 14.4 32 32v704c0 17.6-14.4 32-32 32zM192 576h-128v64h128v-64zM544 768h-192c-17.6 0-32-14.4-32-32v-704c0-17.6 14.4-32 32-32h192c17.6 0 32 14.4 32 32v704c0 17.6-14.4 32-32 32zM512 576h-128v64h128v-64zM765.088 718.52l-171.464-86.394c-15.716-7.918-22.096-27.258-14.178-42.976l287.978-571.548c7.918-15.718 27.258-22.098 42.976-14.178l171.464 86.392c15.716 7.92 22.096 27.26 14.178 42.974l-287.978 571.55c-7.92 15.718-27.26 22.1-42.976 14.18zM928 32c0-17.673-14.327-32-32-32s-32 14.327-32 32c0 17.673 14.327 32 32 32s32-14.327 32-32z" />
<glyph unicode="&#xe931;" glyph-name="top" d="M462.812 568.472l-340.93-340.93c-12.817-12.817-20.508-30.76-20.508-46.142s7.691-30.76 20.508-43.578c25.634-25.634 61.521-25.634 87.155 0l297.352 297.352 297.352-297.352c25.634-25.634 61.521-25.634 87.155 0s25.634 64.086 0 89.72l-340.93 340.93c-12.817 12.817-28.196 17.943-43.578 17.943-17.943 0.004-30.76-5.126-43.578-17.943z" />
<glyph unicode="&#xe932;" glyph-name="award" d="M612.142 224.721c15.624 26.111 38.596 39.488 69.060 39.846s45.839 15.873 46.338 46.41c0.426 30.392 13.662 53.364 39.774 68.919 26.183 15.624 31.855 36.634 16.943 63.248-14.84 26.541-14.84 53.079 0 79.692 14.912 26.541 9.273 47.515-16.943 63.139-26.111 15.66-39.384 38.596-39.774 69.132-0.499 30.392-15.873 45.911-46.338 46.265-30.464 0.426-53.436 13.735-69.060 39.846-15.624 26.183-36.634 31.855-63.175 16.943-26.541-14.84-53.151-14.84-79.692 0-26.577 14.876-47.587 9.241-63.212-16.943-15.588-26.147-38.596-39.452-69.024-39.846-30.392-0.358-45.839-15.873-46.265-46.265-0.499-30.536-13.735-53.436-39.846-69.132-26.183-15.624-31.927-36.566-16.943-63.139 14.912-26.61 14.912-53.151 0-79.692-14.981-26.61-9.273-47.66 16.943-63.248 26.111-15.552 39.384-38.527 39.846-68.919 0.426-30.5 15.873-46.052 46.265-46.41 30.464-0.358 53.436-13.735 69.060-39.846 15.624-26.183 36.634-31.855 63.175-16.874 26.541 14.696 53.151 14.696 79.692 0 26.541-14.949 47.587-9.309 63.175 16.874zM509.193 316.29c-92.104 0-166.731 74.627-166.731 166.731 0 92.036 74.627 166.659 166.731 166.659 92.036 0 166.659-74.627 166.659-166.659 0-92.108-74.627-166.731-166.659-166.731zM334.362 240.128c-32.032 0-36.313 14.912-36.313 14.912l-125.101-245.889 100.308 11.271 55.47-83.474c0 0 115.578 241.145 115.578 239.538-59.895 1.503-36.064 62.038-109.943 63.641zM718.552 245.409c-91.393-9.559-72.806-32.249-93.712-49.871-24.045-25.649-54.079-20.62-54.079-20.62l141.083-242.749 34.709 89.894 98.668-12.879-126.669 236.225zM544.010 519.797l-34.89 70.632-34.922-70.632-78.088-11.412 56.435-55.044-13.305-77.835 69.88 36.707 69.884-36.707-13.308 77.835 56.435 55.044z" />
<glyph unicode="&#xe933;" glyph-name="unlock" horiz-adv-x="724" d="M646.705 337.465c-9.73 9.73-21.528 14.596-35.394 14.596h-382.282v166.146c0 36.732 13.014 68.113 38.921 94.020 26.029 26.029 57.288 38.921 94.020 38.921s68.113-13.014 94.020-38.921c26.029-26.029 38.921-57.288 38.921-94.020 0-9.001 3.284-16.785 9.852-23.353s14.352-9.852 23.353-9.852h33.327c9.001 0 16.785 3.284 23.353 9.852s9.852 14.352 9.852 23.353c0 64.099-22.745 118.832-68.356 164.443-45.489 45.611-100.344 68.356-164.443 68.356s-118.832-22.745-164.443-68.356c-45.489-45.489-68.356-100.344-68.356-164.443v-166.268h-16.42c-13.866 0-25.664-4.865-35.273-14.596s-14.596-21.528-14.596-35.273v-299.209c0-13.866 4.865-25.664 14.596-35.394s21.528-14.596 35.273-14.596h498.803c13.866 0 25.664 4.865 35.394 14.596s14.596 21.528 14.596 35.394v299.209c-0.122 13.866-4.987 25.664-14.717 35.394z" />
<glyph unicode="&#xe934;" glyph-name="file" d="M917.806 666.924c-22.212 30.292-53.174 65.7-87.178 99.704s-69.412 64.964-99.704 87.178c-51.574 37.82-76.592 42.194-90.924 42.194h-496c-44.112 0-80-35.888-80-80v-864c0-44.112 35.888-80 80-80h736c44.112 0 80 35.888 80 80v624c0 14.332-4.372 39.35-42.194 90.924zM785.374 721.374c30.7-30.7 54.8-58.398 72.58-81.374h-153.954v153.946c22.984-17.78 50.678-41.878 81.374-72.572zM896-48c0-8.672-7.328-16-16-16h-736c-8.672 0-16 7.328-16 16v864c0 8.672 7.328 16 16 16 0 0 495.956 0.002 496 0v-224c0-17.672 14.326-32 32-32h224v-624z" />
<glyph unicode="&#xe935;" glyph-name="files" d="M917.806 538.924c-22.21 30.292-53.174 65.7-87.178 99.704s-69.412 64.964-99.704 87.178c-51.574 37.82-76.592 42.194-90.924 42.194h-368c-44.114 0-80-35.888-80-80v-736c0-44.112 35.886-80 80-80h608c44.112 0 80 35.888 80 80v496c0 14.332-4.372 39.35-42.194 90.924zM785.374 593.374c30.7-30.7 54.8-58.398 72.58-81.374h-153.954v153.946c22.982-17.78 50.678-41.878 81.374-72.572v0zM896-48c0-8.672-7.328-16-16-16h-608c-8.672 0-16 7.328-16 16v736c0 8.672 7.328 16 16 16 0 0 367.956 0.002 368 0v-224c0-17.672 14.324-32 32-32h224v-496zM602.924 853.804c-51.574 37.822-76.592 42.196-90.924 42.196h-368c-44.112 0-80-35.888-80-80v-736c0-38.632 27.528-70.958 64-78.39v814.39c0 8.672 7.328 16 16 16h486.876c-9.646 7.92-19.028 15.26-27.952 21.804z" />
<glyph unicode="&#xe936;" glyph-name="file-text" d="M917.806 666.924c-22.212 30.292-53.174 65.7-87.178 99.704s-69.412 64.964-99.704 87.178c-51.574 37.82-76.592 42.194-90.924 42.194h-496c-44.112 0-80-35.888-80-80v-864c0-44.112 35.888-80 80-80h736c44.112 0 80 35.888 80 80v624c0 14.332-4.372 39.35-42.194 90.924zM785.374 721.374c30.7-30.7 54.8-58.398 72.58-81.374h-153.954v153.946c22.984-17.78 50.678-41.878 81.374-72.572zM896-48c0-8.672-7.328-16-16-16h-736c-8.672 0-16 7.328-16 16v864c0 8.672 7.328 16 16 16 0 0 495.956 0.002 496 0v-224c0-17.672 14.326-32 32-32h224v-624zM736 64h-448c-17.672 0-32 14.326-32 32s14.328 32 32 32h448c17.674 0 32-14.326 32-32s-14.326-32-32-32zM736 192h-448c-17.672 0-32 14.326-32 32s14.328 32 32 32h448c17.674 0 32-14.326 32-32s-14.326-32-32-32zM736 320h-448c-17.672 0-32 14.326-32 32s14.328 32 32 32h448c17.674 0 32-14.326 32-32s-14.326-32-32-32z" />
<glyph unicode="&#xe937;" glyph-name="folder" d="M448 768l128-128h448v-704h-1024v832z" />
<glyph unicode="&#xe938;" glyph-name="folder-open" d="M832-64l192 512h-832l-192-512zM128 512l-128-576v832h288l128-128h416v-128z" />
<glyph unicode="&#xe939;" glyph-name="folder-plus" d="M576 640l-128 128h-448v-832h1024v704h-448zM704 192h-128v-128h-128v128h-128v128h128v128h128v-128h128v-128z" />
<glyph unicode="&#xe93a;" glyph-name="folder-minus" d="M576 640l-128 128h-448v-832h1024v704h-448zM704 192h-384v128h384v-128z" />
<glyph unicode="&#xe93b;" glyph-name="folder-download" d="M576 640l-128 128h-448v-832h1024v704h-448zM512 32l-224 224h160v256h128v-256h160l-224-224z" />
<glyph unicode="&#xe93c;" glyph-name="folder-upload" d="M576 640l-128 128h-448v-832h1024v704h-448zM512 416l224-224h-160v-256h-128v256h-160l224 224z" />
<glyph unicode="&#xe94e;" glyph-name="clock" d="M658.744 146.744l-210.744 210.746v282.51h128v-229.49l173.256-173.254zM512 896c-282.77 0-512-229.23-512-512s229.23-512 512-512 512 229.23 512 512-229.23 512-512 512zM512 0c-212.078 0-384 171.922-384 384s171.922 384 384 384c212.078 0 384-171.922 384-384s-171.922-384-384-384z" />
<glyph unicode="&#xe94f;" glyph-name="clock2" d="M512 896c-282.77 0-512-229.23-512-512s229.23-512 512-512 512 229.23 512 512-229.23 512-512 512zM658.744 146.744l-210.744 210.746v282.51h128v-229.49l173.256-173.254-90.512-90.512z" />
<glyph unicode="&#xe960;" glyph-name="download" d="M512 320l256 256h-192v256h-128v-256h-192zM744.726 424.728l-71.74-71.742 260.080-96.986-421.066-157.018-421.066 157.018 260.080 96.986-71.742 71.742-279.272-104.728v-256l512-192 512 192v256z" />
<glyph unicode="&#xe961;" glyph-name="upload" d="M448 320h128v256h192l-256 256-256-256h192zM640 464v-98.712l293.066-109.288-421.066-157.018-421.066 157.018 293.066 109.288v98.712l-384-144v-256l512-192 512 192v256z" />
<glyph unicode="&#xe979;" glyph-name="hour-glass" d="M728.992 384c137.754 87.334 231.008 255.208 231.008 448 0 21.676-1.192 43.034-3.478 64h-889.042c-2.29-20.968-3.48-42.326-3.48-64 0-192.792 93.254-360.666 231.006-448-137.752-87.334-231.006-255.208-231.006-448 0-21.676 1.19-43.034 3.478-64h889.042c2.288 20.966 3.478 42.324 3.478 64 0.002 192.792-93.252 360.666-231.006 448zM160-64c0 186.912 80.162 345.414 224 397.708v100.586c-143.838 52.29-224 210.792-224 397.706v0h704c0-186.914-80.162-345.416-224-397.706v-100.586c143.838-52.294 224-210.796 224-397.708h-704zM619.626 226.406c-71.654 40.644-75.608 93.368-75.626 125.366v64.228c0 31.994 3.804 84.914 75.744 125.664 38.504 22.364 71.808 56.348 97.048 98.336h-409.582c25.266-42.032 58.612-76.042 97.166-98.406 71.654-40.644 75.606-93.366 75.626-125.366v-64.228c0-31.992-3.804-84.914-75.744-125.664-72.622-42.18-126.738-125.684-143.090-226.336h501.67c-16.364 100.708-70.53 184.248-143.212 226.406z" />
<glyph unicode="&#xe97a;" glyph-name="loader-spinner" d="M384 768c0 70.692 57.308 128 128 128s128-57.308 128-128c0-70.692-57.308-128-128-128s-128 57.308-128 128zM655.53 655.53c0 70.692 57.308 128 128 128s128-57.308 128-128c0-70.692-57.308-128-128-128s-128 57.308-128 128zM832 384c0 35.346 28.654 64 64 64s64-28.654 64-64c0-35.346-28.654-64-64-64s-64 28.654-64 64zM719.53 112.47c0 35.346 28.654 64 64 64s64-28.654 64-64c0-35.346-28.654-64-64-64s-64 28.654-64 64zM448.002 0c0 0 0 0 0 0 0 35.346 28.654 64 64 64s64-28.654 64-64c0 0 0 0 0 0 0-35.346-28.654-64-64-64s-64 28.654-64 64zM176.472 112.47c0 0 0 0 0 0 0 35.346 28.654 64 64 64s64-28.654 64-64c0 0 0 0 0 0 0-35.346-28.654-64-64-64s-64 28.654-64 64zM144.472 655.53c0 0 0 0 0 0 0 53.019 42.981 96 96 96s96-42.981 96-96c0 0 0 0 0 0 0-53.019-42.981-96-96-96s-96 42.981-96 96zM56 384c0 39.765 32.235 72 72 72s72-32.235 72-72c0-39.765-32.235-72-72-72s-72 32.235-72 72z" />
<glyph unicode="&#xe9af;" glyph-name="airplane" d="M768 256.032l-182.82 182.822 438.82 329.15-128.010 127.996-548.52-219.442-172.7 172.706c-49.78 49.778-119.302 61.706-154.502 26.508-35.198-35.198-23.268-104.726 26.51-154.5l172.686-172.684-219.464-548.582 127.99-128.006 329.19 438.868 182.826-182.828v-255.98h127.994l63.992 191.988 191.988 63.996v127.992l-255.98-0.004z" />
<glyph unicode="&#xe9b8;" glyph-name="clipboard" d="M928 768h-288c0 70.692-57.306 128-128 128-70.692 0-128-57.308-128-128h-288c-17.672 0-32-14.328-32-32v-832c0-17.674 14.328-32 32-32h832c17.674 0 32 14.326 32 32v832c0 17.672-14.326 32-32 32zM512 832c35.346 0 64-28.654 64-64s-28.654-64-64-64c-35.346 0-64 28.654-64 64s28.654 64 64 64zM896-64h-768v768h128v-96c0-17.672 14.328-32 32-32h448c17.674 0 32 14.328 32 32v96h128v-768zM448 37.49l-205.254 237.254 58.508 58.51 146.746-114.744 274.742 242.744 58.514-58.508z" />
<glyph unicode="&#xe9cc;" glyph-name="flag" d="M0 896h128v-1024h-128v1024zM832 252.998c82.624 0 154.57 19.984 192 49.5v512c-37.43-29.518-109.376-49.502-192-49.502s-154.57 19.984-192 49.502v-512c37.43-29.516 109.376-49.5 192-49.5zM608 863.472c-46.906 19.94-115.52 32.528-192 32.528-96.396 0-180.334-19.984-224-49.502v-512c43.666 29.518 127.604 49.502 224 49.502 76.48 0 145.094-12.588 192-32.528v512z" />
<glyph unicode="&#xe9e1;" glyph-name="emoticon-smile" d="M512-128c282.77 0 512 229.23 512 512s-229.23 512-512 512-512-229.23-512-512 229.23-512 512-512zM512 800c229.75 0 416-186.25 416-416s-186.25-416-416-416-416 186.25-416 416 186.25 416 416 416zM256 576c0 35.346 28.654 64 64 64s64-28.654 64-64c0-35.346-28.654-64-64-64s-64 28.654-64 64zM640 576c0 35.346 28.654 64 64 64s64-28.654 64-64c0-35.346-28.654-64-64-64s-64 28.654-64 64zM704.098 268.74l82.328-49.396c-55.962-93.070-157.916-155.344-274.426-155.344s-218.464 62.274-274.426 155.344l82.328 49.396c39.174-65.148 110.542-108.74 192.098-108.74s152.924 43.592 192.098 108.74z" />
<glyph unicode="&#xe9e2;" glyph-name="emoticon-smile2" d="M512 896c-282.77 0-512-229.23-512-512s229.23-512 512-512 512 229.23 512 512-229.23 512-512 512zM704 640c35.346 0 64-28.654 64-64s-28.654-64-64-64-64 28.654-64 64 28.654 64 64 64zM320 640c35.346 0 64-28.654 64-64s-28.654-64-64-64-64 28.654-64 64 28.654 64 64 64zM512 64c-116.51 0-218.464 62.274-274.426 155.344l82.328 49.396c39.174-65.148 110.542-108.74 192.098-108.74s152.924 43.592 192.098 108.74l82.328-49.396c-55.962-93.070-157.916-155.344-274.426-155.344z" />
<glyph unicode="&#xe9e5;" glyph-name="emoticon-sad" d="M512-128c282.77 0 512 229.23 512 512s-229.23 512-512 512-512-229.23-512-512 229.23-512 512-512zM512 800c229.75 0 416-186.25 416-416s-186.25-416-416-416-416 186.25-416 416 186.25 416 416 416zM256 576c0 35.346 28.654 64 64 64s64-28.654 64-64c0-35.346-28.654-64-64-64s-64 28.654-64 64zM640 576c0 35.346 28.654 64 64 64s64-28.654 64-64c0-35.346-28.654-64-64-64s-64 28.654-64 64zM319.902 115.26l-82.328 49.396c55.962 93.070 157.916 155.344 274.426 155.344 116.508 0 218.462-62.274 274.426-155.344l-82.328-49.396c-39.174 65.148-110.542 108.74-192.098 108.74-81.558 0-152.924-43.592-192.098-108.74z" />
<glyph unicode="&#xe9e6;" glyph-name="emoticon-sad2" d="M512 896c-282.77 0-512-229.23-512-512s229.23-512 512-512 512 229.23 512 512-229.23 512-512 512zM704 640c35.346 0 64-28.654 64-64s-28.654-64-64-64-64 28.654-64 64 28.654 64 64 64zM320 640c35.346 0 64-28.654 64-64s-28.654-64-64-64-64 28.654-64 64 28.654 64 64 64zM704.098 115.26c-39.174 65.148-110.544 108.74-192.098 108.74-81.556 0-152.924-43.592-192.098-108.74l-82.328 49.396c55.96 93.070 157.916 155.344 274.426 155.344 116.508 0 218.464-62.274 274.426-155.344l-82.328-49.396z" />
<glyph unicode="&#xe9f7;" glyph-name="emoticon-neutral" d="M512-128c282.77 0 512 229.23 512 512s-229.23 512-512 512-512-229.23-512-512 229.23-512 512-512zM512 800c229.75 0 416-186.25 416-416s-186.25-416-416-416-416 186.25-416 416 186.25 416 416 416zM256 576c0-35.346 28.654-64 64-64s64 28.654 64 64-28.654 64-64 64-64-28.654-64-64zM640 576c0-35.346 28.654-64 64-64s64 28.654 64 64-28.654 64-64 64-64-28.654-64-64zM384 192h256v-64h-256v64z" />
<glyph unicode="&#xe9f8;" glyph-name="emoticon-neutral2" d="M512 896c-282.77 0-512-229.23-512-512s229.226-512 512-512c282.77 0 512 229.23 512 512s-229.23 512-512 512zM640 128h-256v64h256v-64zM704 640c35.346 0 64-28.654 64-64s-28.654-64-64-64-64 28.654-64 64c0 35.346 28.654 64 64 64zM320 640c35.346 0 64-28.654 64-64s-28.654-64-64-64-64 28.654-64 64c0 35.346 28.654 64 64 64z" />
<glyph unicode="&#xea07;" glyph-name="warning" d="M512 803.226l429.102-855.226h-858.206l429.104 855.226zM512 896c-22.070 0-44.14-14.882-60.884-44.648l-437.074-871.112c-33.486-59.532-5-108.24 63.304-108.24h869.308c68.3 0 96.792 48.708 63.3 108.24h0.002l-437.074 871.112c-16.742 29.766-38.812 44.648-60.882 44.648v0zM576 64c0-35.346-28.654-64-64-64s-64 28.654-64 64c0 35.346 28.654 64 64 64s64-28.654 64-64zM512 192c-35.346 0-64 28.654-64 64v192c0 35.346 28.654 64 64 64s64-28.654 64-64v-192c0-35.346-28.654-64-64-64z" />
<glyph unicode="&#xea08;" glyph-name="notification" d="M512 800c-111.118 0-215.584-43.272-294.156-121.844s-121.844-183.038-121.844-294.156c0-111.118 43.272-215.584 121.844-294.156s183.038-121.844 294.156-121.844c111.118 0 215.584 43.272 294.156 121.844s121.844 183.038 121.844 294.156c0 111.118-43.272 215.584-121.844 294.156s-183.038 121.844-294.156 121.844zM512 896v0c282.77 0 512-229.23 512-512s-229.23-512-512-512c-282.77 0-512 229.23-512 512s229.23 512 512 512zM448 192h128v-128h-128zM448 704h128v-384h-128z" />
<glyph unicode="&#xea0c;" glyph-name="info" d="M448 592c0 26.4 21.6 48 48 48h32c26.4 0 48-21.6 48-48v-32c0-26.4-21.6-48-48-48h-32c-26.4 0-48 21.6-48 48v32zM640 128h-256v64h64v192h-64v64h192v-256h64zM512 896c-282.77 0-512-229.23-512-512s229.23-512 512-512 512 229.23 512 512-229.23 512-512 512zM512-32c-229.75 0-416 186.25-416 416s186.25 416 416 416 416-186.25 416-416-186.25-416-416-416z" />
<glyph unicode="&#xea12;" glyph-name="spell-check" d="M128 640h128v-192h64v384c0 35.2-28.8 64-64 64h-128c-35.2 0-64-28.8-64-64v-384h64v192zM128 832h128v-128h-128v128zM960 832v64h-192c-35.202 0-64-28.8-64-64v-320c0-35.2 28.798-64 64-64h192v64h-192v320h192zM640 736v96c0 35.2-28.8 64-64 64h-192v-448h192c35.2 0 64 28.8 64 64v96c0 35.2-8.8 64-44 64 35.2 0 44 28.8 44 64zM576 512h-128v128h128v-128zM576 704h-128v128h128v-128zM832 320l-416-448-224 288 82 70 142-148 352 302z" />
<glyph unicode="&#xea1d;" glyph-name="pause" d="M128 768h320v-768h-320zM576 768h320v-768h-320z" />
<glyph unicode="&#xea1e;" glyph-name="stop" d="M128 768h768v-768h-768z" />
<glyph unicode="&#xea1f;" glyph-name="section" d="M896 768v-320h-768v320zM896 320v-320h-768v320z" />
<glyph unicode="&#xea77;" glyph-name="paragraph-left" d="M0 832h1024v-128h-1024zM0 640h640v-128h-640zM0 256h640v-128h-640zM0 448h1024v-128h-1024zM0 64h1024v-128h-1024z" />
<glyph unicode="&#xea78;" glyph-name="paragraph-center" d="M0 832h1024v-128h-1024zM192 640h640v-128h-640zM192 256h640v-128h-640zM0 448h1024v-128h-1024zM0 64h1024v-128h-1024z" />
<glyph unicode="&#xea79;" glyph-name="paragraph-right" d="M0 832h1024v-128h-1024zM384 640h640v-128h-640zM384 256h640v-128h-640zM0 448h1024v-128h-1024zM0 64h1024v-128h-1024z" />
<glyph unicode="&#xea7a;" glyph-name="paragraph-justify" d="M0 832h1024v-128h-1024zM0 640h1024v-128h-1024zM0 448h1024v-128h-1024zM0 256h1024v-128h-1024zM0 64h1024v-128h-1024z" />
<glyph unicode="&#xea7d;" glyph-name="share" d="M256 256c0 0 58.824 192 384 192v-192l384 256-384 256v-192c-256 0-384-159.672-384-320zM704 128h-576v384h125.876c10.094 11.918 20.912 23.334 32.488 34.18 43.964 41.19 96.562 72.652 156.114 93.82h-442.478v-640h832v268.624l-128-85.334v-55.29z" />
<glyph unicode="&#xeaae;" glyph-name="dropbox" d="M736 864l-224-192 288-192 224 192zM512 672l-224 192-288-192 224-192zM800 480l224-192-288-160-224 192zM512 320l-288 160-224-192 288-160zM728.156 50.43l-216.156 185.278-216.158-185.278-135.842 75.468v-93.898l352-160 352 160v93.898z" />
<glyph unicode="&#xeac5;" glyph-name="skype" d="M425.6 858.6c-1.6 1-3.4 1.8-5 2.6-1.8-0.4-3.4-0.6-5.2-1l10.2-1.6zM36.8 475c-0.4-1.8-0.6-3.6-0.8-5.2 1-1.6 1.6-3.2 2.6-4.8l-1.8 10zM986.8 293.4c0.4 1.8 0.6 3.6 1 5.4-1 1.6-1.6 3.2-2.6 4.8l1.6-10.2zM592-87c1.6-1 3.4-1.8 5-2.6 1.8 0.4 3.6 0.6 5.4 0.8l-10.4 1.8zM987.8 298.8c-0.4-1.8-0.6-3.6-1-5.4l-1.8 10.4c1-1.8 1.8-3.4 2.8-5 5.2 28.8 8 58.2 8 87.6 0 65.2-12.8 128.6-38 188.2-24.4 57.6-59.2 109.4-103.6 153.8s-96.2 79.2-153.6 103.6c-59.6 25.2-123 38-188.2 38-30.8 0-61.6-2.8-91.6-8.6 0 0-0.2 0-0.2 0 1.6-0.8 3.4-1.6 5-2.6l-10.2 1.6c1.8 0.4 3.4 0.6 5.2 1-41.2 21.8-87.4 33.6-134.2 33.6-76.4 0-148.4-29.8-202.4-83.8s-83.8-126-83.8-202.4c0-48.6 12.6-96.6 36-138.8 0.4 1.8 0.6 3.6 0.8 5.2l1.8-10.2c-1 1.6-1.8 3.2-2.6 4.8-4.8-27.4-7.2-55.4-7.2-83.4 0-65.2 12.8-128.6 38-188.2 24.4-57.6 59.2-109.2 103.6-153.6s96.2-79.2 153.8-103.6c59.6-25.2 123-38 188.2-38 28.4 0 56.8 2.6 84.6 7.6-1.6 1-3.2 1.8-5 2.6l10.4-1.8c-1.8-0.4-3.6-0.6-5.4-0.8 42.8-24.2 91.4-37.2 140.8-37.2 76.4 0 148.4 29.8 202.4 83.8s83.8 126 83.8 202.4c-0.2 48.6-12.8 96.6-36.4 139.2zM514.2 90.2c-171.8 0-248.6 84.4-248.6 147.8 0 32.4 24 55.2 57 55.2 73.6 0 54.4-105.6 191.6-105.6 70.2 0 109 38.2 109 77.2 0 23.4-11.6 49.4-57.8 60.8l-152.8 38.2c-123 30.8-145.4 97.4-145.4 160 0 129.8 122.2 178.6 237 178.6 105.8 0 230.4-58.4 230.4-136.4 0-33.4-29-52.8-62-52.8-62.8 0-51.2 86.8-177.6 86.8-62.8 0-97.4-28.4-97.4-69s49.6-53.6 92.6-63.4l113.2-25.2c123.8-27.6 155.2-100 155.2-168 0-105.4-81-184.2-244.4-184.2z" />
<glyph unicode="&#xeac9;" glyph-name="linkedin" d="M928 896h-832c-52.8 0-96-43.2-96-96v-832c0-52.8 43.2-96 96-96h832c52.8 0 96 43.2 96 96v832c0 52.8-43.2 96-96 96zM384 64h-128v448h128v-448zM320 576c-35.4 0-64 28.6-64 64s28.6 64 64 64c35.4 0 64-28.6 64-64s-28.6-64-64-64zM832 64h-128v256c0 35.4-28.6 64-64 64s-64-28.6-64-64v-256h-128v448h128v-79.4c26.4 36.2 66.8 79.4 112 79.4 79.6 0 144-71.6 144-160v-288z" />
<glyph unicode="&#xeaca;" glyph-name="linkedin2" d="M384 512h177.106v-90.782h2.532c24.64 44.194 84.958 90.782 174.842 90.782 186.946 0 221.52-116.376 221.52-267.734v-308.266h-184.61v273.278c0 65.184-1.334 149.026-96.028 149.026-96.148 0-110.82-70.986-110.82-144.292v-278.012h-184.542v576zM64 512h192v-576h-192v576zM256 672c0-53.019-42.981-96-96-96s-96 42.981-96 96c0 53.019 42.981 96 96 96s96-42.981 96-96z" />
<glyph unicode="&#xead3;" glyph-name="xing" d="M928 896h-832c-52.8 0-96-43.2-96-96v-832c0-52.8 43.2-96 96-96h832c52.8 0 96 43.2 96 96v832c0 52.8-43.2 96-96 96zM312.6 230h-110.6c-6.6 0-11.6 3-14.4 7.6-3 4.8-3 10.8 0 17l117.6 207.6c0.2 0.2 0.2 0.4 0 0.6l-74.8 129.6c-3 6.2-3.6 12.2-0.6 17 2.8 4.6 8.4 7 15.2 7h110.8c17 0 25.4-11 30.8-20.8 0 0 75.6-132 76.2-132.8-4.4-8-119.6-211.4-119.6-211.4-6-10.4-14-21.4-30.6-21.4zM836.4 743.8l-245.2-433.6c-0.2-0.2-0.2-0.6 0-0.8l156.2-285.2c3-6.2 3.2-12.4 0.2-17.2-2.8-4.6-8-7-14.8-7h-110.6c-17 0-25.4 11.2-31 21 0 0-157 288-157.4 288.8 7.8 13.8 246.4 437 246.4 437 6 10.6 13.2 21 29.6 21h112.2c6.6 0 12-2.6 14.8-7 2.8-4.6 2.8-10.8-0.4-17z" />
<glyph unicode="&#xead4;" glyph-name="xing22" d="M155.6 693.8c-8.8 0-16.4-3.2-20.2-9.2-3.8-6.4-3.2-14.4 0.8-22.6l99.8-172.8c0.2-0.4 0.2-0.6 0-0.8l-156.8-277.2c-4-8.2-3.8-16.4 0-22.6 3.8-6 10.4-10 19.2-10h147.6c22 0 32.8 15 40.2 28.6 0 0 153.4 271.4 159.4 282-0.6 1-101.6 177-101.6 177-7.4 13-18.4 27.6-41.2 27.6h-147.2zM776 896c-22 0-31.6-13.8-39.6-28.2 0 0-318.2-564.2-328.6-582.8 0.6-1 209.8-385 209.8-385 7.4-13 18.6-28.2 41.2-28.2h147.6c8.8 0 15.8 3.4 19.6 9.4 4 6.4 3.8 14.6-0.4 22.8l-208 380.6c-0.2 0.4-0.2 0.6 0 1l327 578.2c4 8.2 4.2 16.4 0.4 22.8-3.8 6-10.8 9.4-19.6 9.4h-149.4z" />
<glyph unicode="&#xf003;" glyph-name="mail" d="M950.857 4.571v438.857q-18.286-20.571-39.429-37.714-153.143-117.714-243.429-193.143-29.143-24.571-47.429-38.286t-49.429-27.714-58.571-14h-1.143q-27.429 0-58.571 14t-49.429 27.714-47.429 38.286q-90.286 75.429-243.429 193.143-21.143 17.143-39.429 37.714v-438.857q0-7.429 5.429-12.857t12.857-5.429h841.143q7.429 0 12.857 5.429t5.429 12.857zM950.857 605.143v14t-0.286 7.429-1.714 7.143-3.143 5.143-5.143 4.286-8 1.429h-841.143q-7.429 0-12.857-5.429t-5.429-12.857q0-96 84-162.286 110.286-86.857 229.143-181.143 3.429-2.857 20-16.857t26.286-21.429 25.429-18 28.857-15.714 24.571-5.143h1.143q11.429 0 24.571 5.143t28.857 15.714 25.429 18 26.286 21.429 20 16.857q118.857 94.286 229.143 181.143 30.857 24.571 57.429 66t26.571 75.143zM1024 626.286v-621.714q0-37.714-26.857-64.571t-64.571-26.857h-841.143q-37.714 0-64.571 26.857t-26.857 64.571v621.714q0 37.714 26.857 64.571t64.571 26.857h841.143q37.714 0 64.571-26.857t26.857-64.571z" />
<glyph unicode="&#xf004;" glyph-name="heart" d="M512-86.857q-14.857 0-25.143 10.286l-356.571 344q-5.714 4.571-15.714 14.857t-31.714 37.429-38.857 55.714-30.571 69.143-13.429 78.857q0 125.714 72.571 196.571t200.571 70.857q35.429 0 72.286-12.286t68.571-33.143 54.571-39.143 43.429-38.857q20.571 20.571 43.429 38.857t54.571 39.143 68.571 33.143 72.286 12.286q128 0 200.571-70.857t72.571-196.571q0-126.286-130.857-257.143l-356-342.857q-10.286-10.286-25.143-10.286z" />
<glyph unicode="&#xf005;" glyph-name="star2" horiz-adv-x="951" d="M950.857 494.286q0-12.571-14.857-27.429l-207.429-202.286 49.143-285.714q0.571-4 0.571-11.429 0-12-6-20.286t-17.429-8.286q-10.857 0-22.857 6.857l-256.571 134.857-256.571-134.857q-12.571-6.857-22.857-6.857-12 0-18 8.286t-6 20.286q0 3.429 1.143 11.429l49.143 285.714-208 202.286q-14.286 15.429-14.286 27.429 0 21.143 32 26.286l286.857 41.714 128.571 260q10.857 23.429 28 23.429t28-23.429l128.571-260 286.857-41.714q32-5.143 32-26.286z" />
<glyph unicode="&#xf006;" glyph-name="star" horiz-adv-x="951" d="M649.714 290.286l174.857 169.714-241.143 35.429-108 218.286-108-218.286-241.143-35.429 174.857-169.714-41.714-240.571 216 113.714 215.429-113.714zM950.857 494.286q0-12.571-14.857-27.429l-207.429-202.286 49.143-285.714q0.571-4 0.571-11.429 0-28.571-23.429-28.571-10.857 0-22.857 6.857l-256.571 134.857-256.571-134.857q-12.571-6.857-22.857-6.857-12 0-18 8.286t-6 20.286q0 3.429 1.143 11.429l49.143 285.714-208 202.286q-14.286 15.429-14.286 27.429 0 21.143 32 26.286l286.857 41.714 128.571 260q10.857 23.429 28 23.429t28-23.429l128.571-260 286.857-41.714q32-5.143 32-26.286z" />
<glyph unicode="&#xf009;" glyph-name="uniF009" horiz-adv-x="951" d="M438.857 278.857v-219.429q0-29.714-21.714-51.429t-51.429-21.714h-292.571q-29.714 0-51.429 21.714t-21.714 51.429v219.429q0 29.714 21.714 51.429t51.429 21.714h292.571q29.714 0 51.429-21.714t21.714-51.429zM438.857 717.714v-219.429q0-29.714-21.714-51.429t-51.429-21.714h-292.571q-29.714 0-51.429 21.714t-21.714 51.429v219.429q0 29.714 21.714 51.429t51.429 21.714h292.571q29.714 0 51.429-21.714t21.714-51.429zM950.857 278.857v-219.429q0-29.714-21.714-51.429t-51.429-21.714h-292.571q-29.714 0-51.429 21.714t-21.714 51.429v219.429q0 29.714 21.714 51.429t51.429 21.714h292.571q29.714 0 51.429-21.714t21.714-51.429zM950.857 717.714v-219.429q0-29.714-21.714-51.429t-51.429-21.714h-292.571q-29.714 0-51.429 21.714t-21.714 51.429v219.429q0 29.714 21.714 51.429t51.429 21.714h292.571q29.714 0 51.429-21.714t21.714-51.429z" />
<glyph unicode="&#xf00a;" glyph-name="uniF00A" d="M292.571 150.857v-109.714q0-22.857-16-38.857t-38.857-16h-182.857q-22.857 0-38.857 16t-16 38.857v109.714q0 22.857 16 38.857t38.857 16h182.857q22.857 0 38.857-16t16-38.857zM292.571 443.429v-109.714q0-22.857-16-38.857t-38.857-16h-182.857q-22.857 0-38.857 16t-16 38.857v109.714q0 22.857 16 38.857t38.857 16h182.857q22.857 0 38.857-16t16-38.857zM658.286 150.857v-109.714q0-22.857-16-38.857t-38.857-16h-182.857q-22.857 0-38.857 16t-16 38.857v109.714q0 22.857 16 38.857t38.857 16h182.857q22.857 0 38.857-16t16-38.857zM292.571 736v-109.714q0-22.857-16-38.857t-38.857-16h-182.857q-22.857 0-38.857 16t-16 38.857v109.714q0 22.857 16 38.857t38.857 16h182.857q22.857 0 38.857-16t16-38.857zM658.286 443.429v-109.714q0-22.857-16-38.857t-38.857-16h-182.857q-22.857 0-38.857 16t-16 38.857v109.714q0 22.857 16 38.857t38.857 16h182.857q22.857 0 38.857-16t16-38.857zM1024 150.857v-109.714q0-22.857-16-38.857t-38.857-16h-182.857q-22.857 0-38.857 16t-16 38.857v109.714q0 22.857 16 38.857t38.857 16h182.857q22.857 0 38.857-16t16-38.857zM658.286 736v-109.714q0-22.857-16-38.857t-38.857-16h-182.857q-22.857 0-38.857 16t-16 38.857v109.714q0 22.857 16 38.857t38.857 16h182.857q22.857 0 38.857-16t16-38.857zM1024 443.429v-109.714q0-22.857-16-38.857t-38.857-16h-182.857q-22.857 0-38.857 16t-16 38.857v109.714q0 22.857 16 38.857t38.857 16h182.857q22.857 0 38.857-16t16-38.857zM1024 736v-109.714q0-22.857-16-38.857t-38.857-16h-182.857q-22.857 0-38.857 16t-16 38.857v109.714q0 22.857 16 38.857t38.857 16h182.857q22.857 0 38.857-16t16-38.857z" />
<glyph unicode="&#xf00b;" glyph-name="uniF00B" d="M292.571 150.857v-109.714q0-22.857-16-38.857t-38.857-16h-182.857q-22.857 0-38.857 16t-16 38.857v109.714q0 22.857 16 38.857t38.857 16h182.857q22.857 0 38.857-16t16-38.857zM292.571 443.429v-109.714q0-22.857-16-38.857t-38.857-16h-182.857q-22.857 0-38.857 16t-16 38.857v109.714q0 22.857 16 38.857t38.857 16h182.857q22.857 0 38.857-16t16-38.857zM1024 150.857v-109.714q0-22.857-16-38.857t-38.857-16h-548.571q-22.857 0-38.857 16t-16 38.857v109.714q0 22.857 16 38.857t38.857 16h548.571q22.857 0 38.857-16t16-38.857zM292.571 736v-109.714q0-22.857-16-38.857t-38.857-16h-182.857q-22.857 0-38.857 16t-16 38.857v109.714q0 22.857 16 38.857t38.857 16h182.857q22.857 0 38.857-16t16-38.857zM1024 443.429v-109.714q0-22.857-16-38.857t-38.857-16h-548.571q-22.857 0-38.857 16t-16 38.857v109.714q0 22.857 16 38.857t38.857 16h548.571q22.857 0 38.857-16t16-38.857zM1024 736v-109.714q0-22.857-16-38.857t-38.857-16h-548.571q-22.857 0-38.857 16t-16 38.857v109.714q0 22.857 16 38.857t38.857 16h548.571q22.857 0 38.857-16t16-38.857z" />
<glyph unicode="&#xf00c;" glyph-name="check" d="M954.857 540.571q0-22.857-16-38.857l-491.429-491.429q-16-16-38.857-16t-38.857 16l-284.571 284.571q-16 16-16 38.857t16 38.857l77.714 77.714q16 16 38.857 16t38.857-16l168-168.571 374.857 375.429q16 16 38.857 16t38.857-16l77.714-77.714q16-16 16-38.857z" />
<glyph unicode="&#xf00d;" glyph-name="delete" horiz-adv-x="805" d="M741.714 108.571q0-22.857-16-38.857l-77.714-77.714q-16-16-38.857-16t-38.857 16l-168 168-168-168q-16-16-38.857-16t-38.857 16l-77.714 77.714q-16 16-16 38.857t16 38.857l168 168-168 168q-16 16-16 38.857t16 38.857l77.714 77.714q16 16 38.857 16t38.857-16l168-168 168 168q16 16 38.857 16t38.857-16l77.714-77.714q16-16 16-38.857t-16-38.857l-168-168 168-168q16-16 16-38.857z" />
<glyph unicode="&#xf015;" glyph-name="home" horiz-adv-x="951" d="M804.571 297.143v-274.286q0-14.857-10.857-25.714t-25.714-10.857h-219.429v219.429h-146.286v-219.429h-219.429q-14.857 0-25.714 10.857t-10.857 25.714v274.286q0 0.571 0.286 1.714t0.286 1.714l328.571 270.857 328.571-270.857q0.571-1.143 0.571-3.429zM932 336.571l-35.429-42.286q-4.571-5.143-12-6.286h-1.714q-7.429 0-12 4l-395.429 329.714-395.429-329.714q-6.857-4.571-13.714-4-7.429 1.143-12 6.286l-35.429 42.286q-4.571 5.714-4 13.429t6.286 12.286l410.857 342.286q18.286 14.857 43.429 14.857t43.429-14.857l139.429-116.571v111.429q0 8 5.143 13.143t13.143 5.143h109.714q8 0 13.143-5.143t5.143-13.143v-233.143l125.143-104q5.714-4.571 6.286-12.286t-4-13.429z" />
<glyph unicode="&#xf017;" glyph-name="time" d="M512 553.143v-256q0-8-5.143-13.143t-13.143-5.143h-182.857q-8 0-13.143 5.143t-5.143 13.143v36.571q0 8 5.143 13.143t13.143 5.143h128v201.143q0 8 5.143 13.143t13.143 5.143h36.571q8 0 13.143-5.143t5.143-13.143zM749.714 352q0 84.571-41.714 156t-113.143 113.143-156 41.714-156-41.714-113.143-113.143-41.714-156 41.714-156 113.143-113.143 156-41.714 156 41.714 113.143 113.143 41.714 156zM877.714 352q0-119.429-58.857-220.286t-159.714-159.714-220.286-58.857-220.286 58.857-159.714 159.714-58.857 220.286 58.857 220.286 159.714 159.714 220.286 58.857 220.286-58.857 159.714-159.714 58.857-220.286z" />
<glyph unicode="&#xf01e;" glyph-name="repete" d="M877.714 717.714v-256q0-14.857-10.857-25.714t-25.714-10.857h-256q-24 0-33.714 22.857-9.714 22.286 8 39.429l78.857 78.857q-84.571 78.286-199.429 78.286-59.429 0-113.429-23.143t-93.429-62.571-62.571-93.429-23.143-113.429 23.143-113.429 62.571-93.429 93.429-62.571 113.429-23.143q68 0 128.571 29.714t102.286 84q4 5.714 13.143 6.857 8 0 14.286-5.143l78.286-78.857q5.143-4.571 5.429-11.714t-4.286-12.857q-62.286-75.429-150.857-116.857t-186.857-41.429q-89.143 0-170.286 34.857t-140 93.714-93.714 140-34.857 170.286 34.857 170.286 93.714 140 140 93.714 170.286 34.857q84 0 162.571-31.714t139.714-89.429l74.286 73.714q16.571 17.714 40 8 22.286-9.714 22.286-33.714z" />
<glyph unicode="&#xf021;" glyph-name="refresh" d="M863.429 260.571q0-2.857-0.571-4-36.571-153.143-153.143-248.286t-273.143-95.143q-83.429 0-161.429 31.429t-139.143 89.714l-73.714-73.714q-10.857-10.857-25.714-10.857t-25.714 10.857-10.857 25.714v256q0 14.857 10.857 25.714t25.714 10.857h256q14.857 0 25.714-10.857t10.857-25.714-10.857-25.714l-78.286-78.286q40.571-37.714 92-58.286t106.857-20.571q76.571 0 142.857 37.143t106.286 102.286q6.286 9.714 30.286 66.857 4.571 13.143 17.143 13.143h109.714q7.429 0 12.857-5.429t5.429-12.857zM877.714 717.714v-256q0-14.857-10.857-25.714t-25.714-10.857h-256q-14.857 0-25.714 10.857t-10.857 25.714 10.857 25.714l78.857 78.857q-84.571 78.286-199.429 78.286-76.571 0-142.857-37.143t-106.286-102.286q-6.286-9.714-30.286-66.857-4.571-13.143-17.143-13.143h-113.714q-7.429 0-12.857 5.429t-5.429 12.857v4q37.143 153.143 154.286 248.286t274.286 95.143q83.429 0 162.286-31.714t140-89.429l74.286 73.714q10.857 10.857 25.714 10.857t25.714-10.857 10.857-25.714z" />
<glyph unicode="&#xf02e;" glyph-name="bookmark2" horiz-adv-x="731" d="M665.143 790.857q13.143 0 25.143-5.143 18.857-7.429 30-23.429t11.143-35.429v-736.571q0-19.429-11.143-35.429t-30-23.429q-10.857-4.571-25.143-4.571-27.429 0-47.429 18.286l-252 242.286-252-242.286q-20.571-18.857-47.429-18.857-13.143 0-25.143 5.143-18.857 7.429-30 23.429t-11.143 35.429v736.571q0 19.429 11.143 35.429t30 23.429q12 5.143 25.143 5.143h598.857z" />
<glyph unicode="&#xf02f;" glyph-name="print" horiz-adv-x="951" d="M219.429-13.714h512v146.286h-512v-146.286zM219.429 352h512v219.429h-91.429q-22.857 0-38.857 16t-16 38.857v91.429h-365.714v-365.714zM877.714 315.429q0 14.857-10.857 25.714t-25.714 10.857-25.714-10.857-10.857-25.714 10.857-25.714 25.714-10.857 25.714 10.857 10.857 25.714zM950.857 315.429v-237.714q0-7.429-5.429-12.857t-12.857-5.429h-128v-91.429q0-22.857-16-38.857t-38.857-16h-548.571q-22.857 0-38.857 16t-16 38.857v91.429h-128q-7.429 0-12.857 5.429t-5.429 12.857v237.714q0 45.143 32.286 77.429t77.429 32.286h36.571v310.857q0 22.857 16 38.857t38.857 16h384q22.857 0 50.286-11.429t43.429-27.429l86.857-86.857q16-16 27.429-43.429t11.429-50.286v-146.286h36.571q45.143 0 77.429-32.286t32.286-77.429z" />
<glyph unicode="&#xf031;" glyph-name="font" horiz-adv-x="951" d="M414.286 558.285l-97.143-257.143c56.571-0.571 113.143-2.286 169.714-2.286 10.857 0 21.714 0.571 32.571 1.143-29.714 86.857-64.571 175.429-105.143 258.286zM0-73.143l1.143 45.143c53.714 16.571 112 5.143 136 66.857l135.429 352 160 413.714h73.143c2.286-4 4.571-8 6.286-12l117.143-274.286c42.857-101.143 82.286-203.429 125.714-304 25.714-59.429 45.714-120.571 74.286-178.857 4-9.143 12-26.286 20-32.571 18.857-14.857 71.429-18.286 98.286-28.571 1.714-10.857 3.429-21.714 3.429-32.571 0-5.143-0.571-9.714-0.571-14.857-72.571 0-145.143 9.143-217.714 9.143-74.857 0-149.714-6.286-224.571-8.571 0 14.857 0.571 29.714 2.286 44.571l74.857 16c15.429 3.429 45.714 7.429 45.714 28.571 0 20.571-73.714 190.286-82.857 213.714l-257.143 1.143c-14.857-33.143-72.571-182.857-72.571-204.571 0-44 84-45.714 116.571-50.286 0.571-10.857 0.571-21.714 0.571-33.143 0-5.143-0.571-10.286-1.143-15.429-66.286 0-133.143 11.429-199.429 11.429-8 0-19.429-3.429-27.429-4.571-36-6.286-71.429-8-107.429-8z" />
<glyph unicode="&#xf03d;" glyph-name="video-camera" d="M1024 676.571v-621.714c0-14.857-9.143-28-22.286-33.714-4.571-1.714-9.714-2.857-14.286-2.857-9.714 0-18.857 3.429-25.714 10.857l-230.286 230.286v-94.857c0-90.857-73.714-164.571-164.571-164.571h-402.286c-90.857 0-164.571 73.714-164.571 164.571v402.286c0 90.857 73.714 164.571 164.571 164.571h402.286c90.857 0 164.571-73.714 164.571-164.571v-94.286l230.286 229.714c6.857 7.429 16 10.857 25.714 10.857 4.571 0 9.714-1.143 14.286-2.857 13.143-5.714 22.286-18.857 22.286-33.714z" />
<glyph unicode="&#xf03e;" glyph-name="picture" horiz-adv-x="1097" d="M365.714 534.857q0-45.714-32-77.714t-77.714-32-77.714 32-32 77.714 32 77.714 77.714 32 77.714-32 32-77.714zM950.857 315.429v-256h-804.571v109.714l182.857 182.857 91.429-91.429 292.571 292.571zM1005.714 717.714h-914.286q-7.429 0-12.857-5.429t-5.429-12.857v-694.857q0-7.429 5.429-12.857t12.857-5.429h914.286q7.429 0 12.857 5.429t5.429 12.857v694.857q0 7.429-5.429 12.857t-12.857 5.429zM1097.143 699.429v-694.857q0-37.714-26.857-64.571t-64.571-26.857h-914.286q-37.714 0-64.571 26.857t-26.857 64.571v694.857q0 37.714 26.857 64.571t64.571 26.857h914.286q37.714 0 64.571-26.857t26.857-64.571z" />
<glyph unicode="&#xf03f;" glyph-name="image, photo, picture-o" horiz-adv-x="1097" d="M365.714 548.571c0-60.571-49.143-109.714-109.714-109.714s-109.714 49.143-109.714 109.714 49.143 109.714 109.714 109.714 109.714-49.143 109.714-109.714zM950.857 329.143v-256h-804.571v109.714l182.857 182.857 91.429-91.429 292.571 292.571zM1005.714 731.428h-914.286c-9.714 0-18.286-8.571-18.286-18.286v-694.857c0-9.714 8.571-18.286 18.286-18.286h914.286c9.714 0 18.286 8.571 18.286 18.286v694.857c0 9.714-8.571 18.286-18.286 18.286zM1097.143 713.143v-694.857c0-50.286-41.143-91.429-91.429-91.429h-914.286c-50.286 0-91.429 41.143-91.429 91.429v694.857c0 50.286 41.143 91.429 91.429 91.429h914.286c50.286 0 91.429-41.143 91.429-91.429z" />
<glyph unicode="&#xf059;" glyph-name="question-circle" horiz-adv-x="878" d="M512 91.428v109.714c0 10.286-8 18.286-18.286 18.286h-109.714c-10.286 0-18.286-8-18.286-18.286v-109.714c0-10.286 8-18.286 18.286-18.286h109.714c10.286 0 18.286 8 18.286 18.286zM658.286 475.428c0 104.571-109.714 182.857-208 182.857-93.143 0-162.857-40-212-121.714-5.143-8-2.857-18.286 4.571-24l75.429-57.143c2.857-2.286 6.857-3.429 10.857-3.429 5.143 0 10.857 2.286 14.286 6.857 26.857 34.286 38.286 44.571 49.143 52.571 9.714 6.857 28.571 13.714 49.143 13.714 36.571 0 70.286-23.429 70.286-48.571 0-29.714-15.429-44.571-50.286-60.571-40.571-18.286-96-65.714-96-121.143v-20.571c0-10.286 8-18.286 18.286-18.286h109.714c10.286 0 18.286 8 18.286 18.286v0c0 13.143 16.571 41.143 43.429 56.571 43.429 24.571 102.857 57.714 102.857 144.571zM877.714 365.714c0-242.286-196.571-438.857-438.857-438.857s-438.857 196.571-438.857 438.857 196.571 438.857 438.857 438.857 438.857-196.571 438.857-438.857z" />
<glyph unicode="&#xf05a;" glyph-name="info-circle" horiz-adv-x="878" d="M585.143 91.428v91.429c0 10.286-8 18.286-18.286 18.286h-54.857v292.571c0 10.286-8 18.286-18.286 18.286h-182.857c-10.286 0-18.286-8-18.286-18.286v-91.429c0-10.286 8-18.286 18.286-18.286h54.857v-182.857h-54.857c-10.286 0-18.286-8-18.286-18.286v-91.429c0-10.286 8-18.286 18.286-18.286h256c10.286 0 18.286 8 18.286 18.286zM512 603.428v91.429c0 10.286-8 18.286-18.286 18.286h-109.714c-10.286 0-18.286-8-18.286-18.286v-91.429c0-10.286 8-18.286 18.286-18.286h109.714c10.286 0 18.286 8 18.286 18.286zM877.714 365.714c0-242.286-196.571-438.857-438.857-438.857s-438.857 196.571-438.857 438.857 196.571 438.857 438.857 438.857 438.857-196.571 438.857-438.857z" />
<glyph unicode="&#xf062;" glyph-name="arrow-up" horiz-adv-x="951" d="M920.571 309.143q0-29.143-21.143-51.429l-42.857-42.857q-21.714-21.714-52-21.714-30.857 0-51.429 21.714l-168 167.429v-402.286q0-29.714-21.429-48.286t-51.714-18.571h-73.143q-30.286 0-51.714 18.571t-21.429 48.286v402.286l-168-167.429q-20.571-21.714-51.429-21.714t-51.429 21.714l-42.857 42.857q-21.714 21.714-21.714 51.429 0 30.286 21.714 52l372 372q20 21.143 51.429 21.143 30.857 0 52-21.143l372-372q21.143-22.286 21.143-52z" />
<glyph unicode="&#xf063;" glyph-name="arrow-down" horiz-adv-x="951" d="M920.571 388.571q0-30.286-21.143-51.429l-372-372.571q-22.286-21.143-52-21.143-30.286 0-51.429 21.143l-372 372.571q-21.714 20.571-21.714 51.429 0 30.286 21.714 52l42.286 42.857q22.286 21.143 52 21.143 30.286 0 51.429-21.143l168-168v402.286q0 29.714 21.714 51.429t51.429 21.714h73.143q29.714 0 51.429-21.714t21.714-51.429v-402.286l168 168q21.143 21.143 51.429 21.143 29.714 0 52-21.143l42.857-42.857q21.143-22.286 21.143-52z" />
<glyph unicode="&#xf067;" glyph-name="add" horiz-adv-x="805" d="M804.571 443.429v-109.714q0-22.857-16-38.857t-38.857-16h-237.714v-237.714q0-22.857-16-38.857t-38.857-16h-109.714q-22.857 0-38.857 16t-16 38.857v237.714h-237.714q-22.857 0-38.857 16t-16 38.857v109.714q0 22.857 16 38.857t38.857 16h237.714v237.714q0 22.857 16 38.857t38.857 16h109.714q22.857 0 38.857-16t16-38.857v-237.714h237.714q22.857 0 38.857-16t16-38.857z" />
<glyph unicode="&#xf071;" glyph-name="danger" d="M585.143 78.286v108.571q0 8-5.429 13.429t-12.857 5.429h-109.714q-7.429 0-12.857-5.429t-5.429-13.429v-108.571q0-8 5.429-13.429t12.857-5.429h109.714q7.429 0 12.857 5.429t5.429 13.429zM584 292l10.286 262.286q0 6.857-5.714 10.857-7.429 6.286-13.714 6.286h-125.714q-6.286 0-13.714-6.286-5.714-4-5.714-12l9.714-261.143q0-5.714 5.714-9.429t13.714-3.714h105.714q8 0 13.429 3.714t6 9.429zM576 825.714l438.857-804.571q20-36-1.143-72-9.714-16.571-26.571-26.286t-36.286-9.714h-877.714q-19.429 0-36.286 9.714t-26.571 26.286q-21.143 36-1.143 72l438.857 804.571q9.714 17.714 26.857 28t37.143 10.286 37.143-10.286 26.857-28z" />
<glyph unicode="&#xf073;" glyph-name="calendar" horiz-adv-x="951" d="M73.143-86.857h164.571v164.571h-164.571v-164.571zM274.286-86.857h182.857v164.571h-182.857v-164.571zM73.143 114.286h164.571v182.857h-164.571v-182.857zM274.286 114.286h182.857v182.857h-182.857v-182.857zM73.143 333.714h164.571v164.571h-164.571v-164.571zM493.714-86.857h182.857v164.571h-182.857v-164.571zM274.286 333.714h182.857v164.571h-182.857v-164.571zM713.143-86.857h164.571v164.571h-164.571v-164.571zM493.714 114.286h182.857v182.857h-182.857v-182.857zM292.571 608v164.571q0 7.429-5.429 12.857t-12.857 5.429h-36.571q-7.429 0-12.857-5.429t-5.429-12.857v-164.571q0-7.429 5.429-12.857t12.857-5.429h36.571q7.429 0 12.857 5.429t5.429 12.857zM713.143 114.286h164.571v182.857h-164.571v-182.857zM493.714 333.714h182.857v164.571h-182.857v-164.571zM713.143 333.714h164.571v164.571h-164.571v-164.571zM731.429 608v164.571q0 7.429-5.429 12.857t-12.857 5.429h-36.571q-7.429 0-12.857-5.429t-5.429-12.857v-164.571q0-7.429 5.429-12.857t12.857-5.429h36.571q7.429 0 12.857 5.429t5.429 12.857zM950.857 644.571v-731.429q0-29.714-21.714-51.429t-51.429-21.714h-804.571q-29.714 0-51.429 21.714t-21.714 51.429v731.429q0 29.714 21.714 51.429t51.429 21.714h73.143v54.857q0 37.714 26.857 64.571t64.571 26.857h36.571q37.714 0 64.571-26.857t26.857-64.571v-54.857h219.429v54.857q0 37.714 26.857 64.571t64.571 26.857h36.571q37.714 0 64.571-26.857t26.857-64.571v-54.857h73.143q29.714 0 51.429-21.714t21.714-51.429z" />
<glyph unicode="&#xf075;" glyph-name="message2" d="M1024 352q0-99.429-68.571-183.714t-186.286-133.143-257.143-48.857q-40 0-82.857 4.571-113.143-100-262.857-138.286-28-8-65.143-12.571-9.714-1.143-17.429 5.143t-10 16.571v0.571q-1.714 2.286-0.286 6.857t1.143 5.714 2.571 5.429l3.429 5.143t4 4.857 4.571 5.143q4 4.571 17.714 19.714t19.714 21.714 17.714 22.571 18.571 29.143 15.429 33.714 14.857 43.429q-89.714 50.857-141.429 125.714t-51.714 160.571q0 74.286 40.571 142t109.143 116.857 163.429 78 198.857 28.857q139.429 0 257.143-48.857t186.286-133.143 68.571-183.714z" />
<glyph unicode="&#xf080;" glyph-name="chart-histogram" horiz-adv-x="1170" d="M365.714 352v-292.571h-146.286v292.571h146.286zM585.143 644.571v-585.143h-146.286v585.143h146.286zM1170.286-13.714v-73.143h-1170.286v877.714h73.143v-804.571h1097.143zM804.571 498.286v-438.857h-146.286v438.857h146.286zM1024 717.714v-658.286h-146.286v658.286h146.286z" />
<glyph unicode="&#xf081;" glyph-name="twitter-square" horiz-adv-x="878" d="M731.429 529.143c-21.714-9.714-44.571-16-69.143-19.429 25.143 14.857 44 38.857 53.143 66.857-23.429-13.714-49.143-24-76.571-29.143-21.714 23.429-53.143 37.714-87.429 37.714-66.286 0-120-53.714-120-120 0-9.143 0.571-18.857 2.857-27.429-100 5.143-188.571 52.571-248 125.714-10.286-17.714-16.571-38.857-16.571-60.571 0-41.714 19.429-78.286 52-100-20 0.571-38.857 6.286-57.143 14.857v-1.143c0-58.286 44-106.857 98.857-117.714-10.286-2.857-18.286-4.571-29.143-4.571-7.429 0-14.857 1.143-22.286 2.286 15.429-47.429 59.429-82.286 112-83.429-41.143-32-92.571-51.429-149.143-51.429-9.714 0-19.429 0.571-28.571 1.714 53.143-33.714 116-53.714 184-53.714 220.571 0 341.714 182.857 341.714 341.714 0 5.143 0 10.286-0.571 15.429 23.429 16.571 44 37.714 60 62.286zM877.714 640v-548.571c0-90.857-73.714-164.571-164.571-164.571h-548.571c-90.857 0-164.571 73.714-164.571 164.571v548.571c0 90.857 73.714 164.571 164.571 164.571h548.571c90.857 0 164.571-73.714 164.571-164.571z" />
<glyph unicode="&#xf086;" glyph-name="discussion2" d="M804.571 425.143q0-79.429-53.714-146.857t-146.571-106.571-202-39.143q-49.143 0-100.571 9.143-70.857-50.286-158.857-73.143-20.571-5.143-49.143-9.143h-1.714q-6.286 0-11.714 4.571t-6.571 12q-0.571 1.714-0.571 3.714t0.286 3.714 1.143 3.429l1.429 2.857t2 3.143 2.286 2.857 2.571 2.857 2.286 2.571q2.857 3.429 13.143 14.286t14.857 16.857 12.857 16.571 14.286 22 11.714 25.143q-70.857 41.143-111.429 101.143t-40.571 128q0 79.429 53.714 146.857t146.571 106.571 202 39.143 202-39.143 146.571-106.571 53.714-146.857zM1024 278.857q0-68.571-40.571-128.286t-111.429-100.857q5.714-13.714 11.714-25.143t14.286-22 12.857-16.571 14.857-16.857 13.143-14.286q0.571-0.571 2.286-2.571t2.571-2.857 2.286-2.857 2-3.143l1.429-2.857t1.143-3.429 0.286-3.714-0.571-3.714q-1.714-8-7.429-12.571t-12.571-4q-28.571 4-49.143 9.143-88 22.857-158.857 73.143-51.429-9.143-100.571-9.143-154.857 0-269.714 75.429 33.143-2.286 50.286-2.286 92 0 176.571 25.714t150.857 73.714q71.429 52.571 109.714 121.143t38.286 145.143q0 44-13.143 86.857 73.714-40.571 116.571-101.714t42.857-131.429z" />
<glyph unicode="&#xf087;" glyph-name="good" d="M146.286 96q0 14.857-10.857 25.714t-25.714 10.857-25.714-10.857-10.857-25.714 10.857-25.714 25.714-10.857 25.714 10.857 10.857 25.714zM804.571 425.143q0 29.143-22.286 51.143t-50.857 22h-201.143q0 33.143 27.429 91.143t27.429 91.714q0 56-18.286 82.857t-73.143 26.857q-14.857-14.857-21.714-48.571t-17.429-71.714-34-62.571q-12.571-13.143-44-52-2.286-2.857-13.143-17.143t-18-23.429-19.714-24.286-22.857-25.143-22-20.286-22.857-15.429-20.286-5.143h-18.286v-365.714h18.286q7.429 0 18-1.714t18.857-3.714 21.714-6.286 20-6.571 20.286-7.143 16.571-6q120.571-41.714 195.429-41.714h69.143q109.714 0 109.714 95.429 0 14.857-2.857 32 17.143 9.143 27.143 30t10 42-10.286 39.429q30.286 28.571 30.286 68 0 14.286-5.714 31.714t-14.286 27.143q18.286 0.571 30.571 26.857t12.286 46.286zM877.714 425.714q0-50.857-28-93.143 5.143-18.857 5.143-39.429 0-44-21.714-82.286 1.714-12 1.714-24.571 0-57.714-34.286-101.714 0.571-79.429-48.571-125.429t-129.714-46h-73.714q-54.857 0-108.286 12.857t-123.714 37.429q-66.286 22.857-78.857 22.857h-164.571q-30.286 0-51.714 21.429t-21.429 51.714v365.714q0 30.286 21.429 51.714t51.714 21.429h156.571q20.571 13.714 78.286 88.571 33.143 42.857 61.143 73.143 13.714 14.286 20.286 48.857t17.429 72.286 35.429 61.714q22.286 21.143 51.429 21.143 48 0 86.286-18.571t58.286-58 20-106.286q0-53.143-27.429-109.714h100.571q59.429 0 102.857-43.429t43.429-102.286z" />
<glyph unicode="&#xf08a;" glyph-name="heart2" d="M950.857 523.429q0 46.286-12.286 81.714t-31.429 56.286-46.571 34-53.714 17.714-56 4.571-64-14.571-63.143-36.571-49.429-41.143-34.286-35.143q-10.286-12.571-28-12.571t-28 12.571q-13.714 16-34.286 35.143t-49.429 41.143-63.143 36.571-64 14.571-56-4.571-53.714-17.714-46.571-34-31.429-56.286-12.286-81.714q0-96 106.857-202.857l332-320 331.429 319.429q107.429 107.429 107.429 203.429zM1024 523.429q0-126.286-130.857-257.143l-356-342.857q-10.286-10.286-25.143-10.286t-25.143 10.286l-356.571 344q-5.714 4.571-15.714 14.857t-31.714 37.429-38.857 55.714-30.571 69.143-13.429 78.857q0 125.714 72.571 196.571t200.571 70.857q35.429 0 72.286-12.286t68.571-33.143 54.571-39.143 43.429-38.857q20.571 20.571 43.429 38.857t54.571 39.143 68.571 33.143 72.286 12.286q128 0 200.571-70.857t72.571-196.571z" />
<glyph unicode="&#xf08c;" glyph-name="uniF08C" d="M135.429 56h132v396.571h-132v-396.571zM276 574.857q-0.571 29.714-20.571 49.143t-53.143 19.429-54-19.429-20.857-49.143q0-29.143 20.286-48.857t52.857-19.714h0.571q33.714 0 54.286 19.714t20.571 48.857zM610.286 56h132v227.429q0 88-41.714 133.143t-110.286 45.143q-77.714 0-119.429-66.857h1.143v57.714h-132q1.714-37.714 0-396.571h132v221.714q0 21.714 4 32 8.571 20 25.714 34t42.286 14q66.286 0 66.286-89.714v-212zM877.714 626.286v-548.571q0-68-48.286-116.286t-116.286-48.286h-548.571q-68 0-116.286 48.286t-48.286 116.286v548.571q0 68 48.286 116.286t116.286 48.286h548.571q68 0 116.286-48.286t48.286-116.286z" />
<glyph unicode="&#xf091;" glyph-name="trophy" horiz-adv-x="951" d="M261.714 359.429q-42.286 92.571-42.286 212h-146.286v-54.857q0-44.571 54-92.571t134.571-64.571zM877.714 516.571v54.857h-146.286q0-119.429-42.286-212 80.571 16.571 134.571 64.571t54 92.571zM950.857 589.714v-73.143q0-40.571-23.714-81.714t-64-74.286-98.857-55.714-123.143-25.429q-24-30.857-54.286-54.286-21.714-19.429-30-41.429t-8.286-51.143q0-30.857 17.429-52t55.714-21.143q42.857 0 76.286-26t33.429-65.429v-36.571q0-8-5.143-13.143t-13.143-5.143h-475.429q-8 0-13.143 5.143t-5.143 13.143v36.571q0 39.429 33.429 65.429t76.286 26q38.286 0 55.714 21.143t17.429 52q0 29.143-8.286 51.143t-30 41.429q-30.286 23.429-54.286 54.286-64.571 2.857-123.143 25.429t-98.857 55.714-64 74.286-23.714 81.714v73.143q0 22.857 16 38.857t38.857 16h164.571v54.857q0 37.714 26.857 64.571t64.571 26.857h329.143q37.714 0 64.571-26.857t26.857-64.571v-54.857h164.571q22.857 0 38.857-16t16-38.857z" />
<glyph unicode="&#xf097;" glyph-name="bookmark" horiz-adv-x="731" d="M658.286 717.714h-585.143v-709.714l292.571 280.571 50.857-48.571 241.714-232v709.714zM665.143 790.857q13.143 0 25.143-5.143 18.857-7.429 30-23.429t11.143-35.429v-736.571q0-19.429-11.143-35.429t-30-23.429q-10.857-4.571-25.143-4.571-27.429 0-47.429 18.286l-252 242.286-252-242.286q-20.571-18.857-47.429-18.857-13.143 0-25.143 5.143-18.857 7.429-30 23.429t-11.143 35.429v736.571q0 19.429 11.143 35.429t30 23.429q12 5.143 25.143 5.143h598.857z" />
<glyph unicode="&#xf099;" glyph-name="twitter" horiz-adv-x="951" d="M925.714 644.571c-25.143-36.571-56.571-69.143-92.571-95.429 0.571-8 0.571-16 0.571-24 0-244-185.714-525.143-525.143-525.143-104.571 0-201.714 30.286-283.429 82.857 14.857-1.714 29.143-2.286 44.571-2.286 86.286 0 165.714 29.143 229.143 78.857-81.143 1.714-149.143 54.857-172.571 128 11.429-1.714 22.857-2.857 34.857-2.857 16.571 0 33.143 2.286 48.571 6.286-84.571 17.143-148 91.429-148 181.143v2.286c24.571-13.714 53.143-22.286 83.429-23.429-49.714 33.143-82.286 89.714-82.286 153.714 0 34.286 9.143 65.714 25.143 93.143 90.857-112 227.429-185.143 380.571-193.143-2.857 13.714-4.571 28-4.571 42.286 0 101.714 82.286 184.571 184.571 184.571 53.143 0 101.143-22.286 134.857-58.286 41.714 8 81.714 23.429 117.143 44.571-13.714-42.857-42.857-78.857-81.143-101.714 37.143 4 73.143 14.286 106.286 28.571z" />
<glyph unicode="&#xf0ac;" glyph-name="world" d="M438.857 790.857q119.429 0 220.286-58.857t159.714-159.714 58.857-220.286-58.857-220.286-159.714-159.714-220.286-58.857-220.286 58.857-159.714 159.714-58.857 220.286 58.857 220.286 159.714 159.714 220.286 58.857zM595.429 493.143q-1.143-0.571-5.429-5.429t-7.714-5.429q1.143 0 2.571 2.857t2.857 6.286 2 4q3.429 4 12.571 8.571 8 3.429 29.714 6.857 19.429 4.571 29.143-6.286-1.143 1.143 5.429 7.429t8.286 6.857q1.714 1.143 8.571 2.571t8.571 4.286l1.143 12.571q-6.857-0.571-10 4t-3.714 12q0-1.143-3.429-4.571 0 4-2.571 4.571t-6.571-0.571-5.143-0.571q-5.714 1.714-8.571 4.286t-4.571 9.429-2.286 8.571q-1.143 2.857-5.429 6t-5.429 6q-0.571 1.143-1.429 3.143t-1.714 3.714-2.286 3.143-3.143 1.429-4-2.857-4.286-5.714-2.571-2.857q-1.714 1.143-3.429 0.857t-2.571-0.571-2.571-1.714-2.857-2q-1.714-1.143-4.857-1.714t-4.857-1.143q8.571 2.857-0.571 6.286-5.714 2.286-9.143 1.714 5.143 2.286 4.286 6.857t-4.857 8h2.857q-0.571 2.286-4.857 4.857t-10 4.857-7.429 3.429q-4.571 2.857-19.429 5.429t-18.857 0.286q-2.857-3.429-2.571-6t2.286-8 2-7.143q0.571-3.429-3.143-7.429t-3.714-6.857q0-4 8-8.857t5.714-12.286q-1.714-4.571-9.143-9.143t-9.143-6.857q-2.857-4.571-0.857-10.571t6-9.429q1.143-1.143 0.857-2.286t-2-2.571-3.143-2.286-3.714-2l-1.714-1.143q-6.286-2.857-11.714 3.429t-7.714 14.857q-4 14.286-9.143 17.143-13.143 4.571-16.571-0.571-2.857 7.429-23.429 14.857-14.286 5.143-33.143 2.286 3.429 0.571 0 8.571-4 8.571-10.857 6.857 1.714 3.429 2.286 10t0.571 7.714q1.714 7.429 6.857 13.143 0.571 0.571 4 4.857t5.429 7.714 0.286 3.429q20-2.286 28.571 6.286 2.857 2.857 6.571 9.714t6 9.714q5.143 3.429 8 3.143t8.286-3.143 8.286-2.857q8-0.571 8.857 6.286t-4.286 11.429q6.857-0.571 1.714 9.714-2.857 4-4.571 5.143-6.857 2.286-15.429-2.857-4.571-2.286 1.143-4.571-0.571 0.571-5.429-6t-9.429-10-9.143 2.857q-0.571 0.571-3.143 7.714t-5.429 7.714q-4.571 0-9.143-8.571 1.714 4.571-6.286 8.571t-13.714 4.571q10.857 6.857-4.571 15.429-4 2.286-11.714 2.857t-11.143-2.286q-2.857-4-3.143-6.571t2.857-4.571 6-3.143 6.571-2.286 4.857-1.714q8-5.714 4.571-8-1.143-0.571-4.857-2t-6.571-2.571-3.429-2.286q-1.714-2.286 0-8t-1.143-8q-2.857 2.857-5.143 10t-4 9.429q4-5.143-14.286-3.429l-5.714 0.571q-2.286 0-9.143-1.143t-11.714-0.571-7.714 4.571q-2.286 4.571 0 11.429 0.571 2.286 2.286 1.143-2.286 1.714-6.286 5.429t-5.714 4.857q-26.286-8.571-53.714-23.429 3.429-0.571 6.857 0.571 2.857 1.143 7.429 3.714t5.714 3.143q19.429 8 24 4l2.857 2.857q8-9.143 11.429-14.286-4 2.286-17.143 0.571-11.429-3.429-12.571-6.857 4-6.857 2.857-10.286-2.286 1.714-6.571 5.714t-8.286 6.286-8.571 2.857q-9.143 0-12.571-0.571-83.429-45.714-134.286-126.857 4-4 6.857-4.571 2.286-0.571 2.857-5.143t1.429-6.286 6.571 1.714q5.143-4.571 1.714-10.857 0.571 0.571 25.143-15.429 10.857-9.714 12-12 1.714-6.286-5.714-10.286-0.571 1.143-5.143 5.143t-5.143 2.286q-1.714-2.857 0.286-10.571t6-7.143q-4 0-5.429-9.143t-1.429-20.286-0.571-13.429l1.143-0.571q-1.714-6.857 3.143-19.714t12.286-11.143q-7.429-1.714 11.429-24.571 3.429-4.571 4.571-5.143 1.714-1.143 6.857-4.286t8.571-5.714 5.714-6q2.286-2.857 5.714-12.857t8-13.429q-1.143-3.429 5.429-11.429t6-13.143q-0.571 0-1.429-0.571t-1.429-0.571q1.714-4 8.857-8t8.857-7.429q0.571-1.714 1.143-5.714t1.714-6.286 4.571-1.143q1.143 11.429-13.714 35.429-8.571 14.286-9.714 16.571-1.714 2.857-3.143 8.857t-2.571 8.286q1.143 0 3.429-0.857t4.857-2 4.286-2.286 1.143-1.714q-1.714-4 1.143-10t6.857-10.571 9.714-10.857 6.857-7.429q3.429-3.429 8-11.143t0-7.714q5.143 0 11.429-5.714t9.714-11.429q2.857-4.571 4.571-14.857t2.857-13.714q1.143-4 4.857-7.714t7.143-5.429l9.143-4.571t7.429-4q2.857-1.143 10.571-6t12.286-6.571q5.714-2.286 9.143-2.286t8.286 1.429 7.714 2q8.571 1.143 16.571-8.571t12-12q20.571-10.857 31.429-6.286-1.143-0.571 0.286-4.286t4.571-8.857 5.143-8.286 3.143-4.857q2.857-3.429 10.286-8.571t10.286-8.571q3.429 2.286 4 5.143-1.714-4.571 4-11.429t10.286-5.714q8 1.714 8 18.286-17.714-8.571-28 10.286 0 0.571-1.429 3.143t-2.286 4.857-1.429 4.857 0 4.286 2.857 1.714q5.143 0 5.714 2t-1.143 7.143-2.286 7.429q-0.571 4.571-6.286 11.429t-6.857 8.571q-2.857-5.143-9.143-4.571t-9.143 5.143q0-0.571-0.857-3.143t-0.857-3.714q-7.429 0-8.571 0.571 0.571 1.714 1.429 10t2 12.857q0.571 2.286 3.143 6.857t4.286 8.286 2.286 7.143-2.571 5.429-10 1.429q-10.857-0.571-14.857-11.429-0.571-1.714-1.714-6t-2.857-6.571-5.143-4q-4-1.714-13.714-1.143t-13.714 2.857q-7.429 4.571-12.857 16.571t-5.429 21.143q0 5.714 1.429 15.143t1.714 14.286-3.143 14q1.714 1.143 5.143 5.429t5.714 6q1.143 0.571 2.571 0.857t2.571 0 2.286 0.857 1.714 3.429q-0.571 0.571-2.286 1.714-1.714 1.714-2.286 1.714 4-1.714 16.286 0.857t15.714-0.857q8.571-6.286 12.571 1.143 0 0.571-1.429 5.429t-0.286 7.714q2.857-15.429 16.571-5.143 1.714-1.714 8.857-2.857t10-2.857q1.714-1.143 4-3.143t3.143-2.571 2.857 0.286 4.857 3.714q5.714-8 6.857-13.714 6.286-22.857 10.857-25.143 4-1.714 6.286-1.143t2.571 5.429 0 8-0.857 7.143l-0.571 4.571v10.286l-0.571 4.571q-8.571 1.714-10.571 6.857t0.857 10.571 8.571 10.571q0.571 0.571 4.571 2t8.857 3.714 7.143 4.571q12 10.857 8.571 20 4 0 6.286 5.143-0.571 0-2.857 1.714t-4.286 2.857-2.571 1.143q5.143 2.857 1.143 9.143 2.857 1.714 4.286 6.286t4.286 5.714q5.143-6.857 12-1.143 4 4.571 0.571 9.143 2.857 4 11.714 6t10.571 5.429q4-1.143 4.571 1.143t0.571 6.857 1.714 6.857q2.286 2.857 8.571 5.143t7.429 2.857l9.714 6.286q1.714 2.286 0 2.286 10.286-1.143 17.714 6.286 5.714 6.286-3.429 11.429 1.714 3.429-1.714 5.429t-8.571 3.143q1.714 0.571 6.571 0.286t6 0.857q8.571 5.714-4 9.143-9.714 2.857-24.571-6.857zM502.286-8q117.714 20.571 200.571 108-1.714 1.714-7.143 2.571t-7.143 2q-10.286 4-13.714 4.571 0.571 4-1.429 7.429t-4.571 5.143-7.143 4.571-6.286 4q-1.143 1.143-4 3.429t-4 3.143-4.286 2.571-4.857 1.143-5.714-0.571l-1.714-0.571q-1.714-0.571-3.143-1.429t-3.143-1.714-2.286-1.714 0-1.429q-12 9.714-20.571 12.571-2.857 0.571-6.286 3.143t-6 4-5.714 0.857-6.571-4q-2.857-2.857-3.429-8.571t-1.143-7.429q-4 2.857 0 10t1.143 10.571q-1.714 3.429-6 2.571t-6.857-2.571-6.571-4.857-5.143-3.714-4.857-3.143-4.857-4.286q-1.714-2.286-3.429-6.857t-2.857-6.286q-1.143 2.286-6.571 3.714t-5.429 3.143q1.143-5.714 2.286-20t2.857-21.714q4-17.714-6.857-27.429-15.429-14.286-16.571-22.857-2.286-12.571 6.857-14.857 0-4-4.571-11.714t-4-12.286q0-3.429 1.143-9.143z" />
<glyph unicode="&#xf0ae;" glyph-name="tasks" d="M585.143 73.143h365.714v73.143h-365.714v-73.143zM365.714 365.714h585.143v73.143h-585.143v-73.143zM731.429 658.285h219.429v73.143h-219.429v-73.143zM1024 182.857v-146.286c0-20-16.571-36.571-36.571-36.571h-950.857c-20 0-36.571 16.571-36.571 36.571v146.286c0 20 16.571 36.571 36.571 36.571h950.857c20 0 36.571-16.571 36.571-36.571zM1024 475.428v-146.286c0-20-16.571-36.571-36.571-36.571h-950.857c-20 0-36.571 16.571-36.571 36.571v146.286c0 20 16.571 36.571 36.571 36.571h950.857c20 0 36.571-16.571 36.571-36.571zM1024 768v-146.286c0-20-16.571-36.571-36.571-36.571h-950.857c-20 0-36.571 16.571-36.571 36.571v146.286c0 20 16.571 36.571 36.571 36.571h950.857c20 0 36.571-16.571 36.571-36.571z" />
<glyph unicode="&#xf0b0;" glyph-name="filters" horiz-adv-x="805" d="M801.714 695.429q9.714-23.429-8-40l-281.714-281.714v-424q0-24-22.286-33.714-7.429-2.857-14.286-2.857-15.429 0-25.714 10.857l-146.286 146.286q-10.857 10.857-10.857 25.714v277.714l-281.714 281.714q-17.714 16.571-8 40 9.714 22.286 33.714 22.286h731.429q24 0 33.714-22.286z" />
<glyph unicode="&#xf0b2;" glyph-name="move" d="M733.143 554.857l-202.857-202.857 202.857-202.857 82.286 82.286q16.571 17.714 40 8 22.286-9.714 22.286-33.714v-256q0-14.857-10.857-25.714t-25.714-10.857h-256q-24 0-33.714 22.857-9.714 22.286 8 39.429l82.286 82.286-202.857 202.857-202.857-202.857 82.286-82.286q17.714-17.143 8-39.429-9.714-22.857-33.714-22.857h-256q-14.857 0-25.714 10.857t-10.857 25.714v256q0 24 22.857 33.714 22.286 9.714 39.429-8l82.286-82.286 202.857 202.857-202.857 202.857-82.286-82.286q-10.857-10.857-25.714-10.857-6.857 0-13.714 2.857-22.857 9.714-22.857 33.714v256q0 14.857 10.857 25.714t25.714 10.857h256q24 0 33.714-22.857 9.714-22.286-8-39.429l-82.286-82.286 202.857-202.857 202.857 202.857-82.286 82.286q-17.714 17.143-8 39.429 9.714 22.857 33.714 22.857h256q14.857 0 25.714-10.857t10.857-25.714v-256q0-24-22.286-33.714-7.429-2.857-14.286-2.857-14.857 0-25.714 10.857z" />
</font>
</defs>
</svg>
